<svg width="844" height="843" viewBox="0 0 844 843" fill="none" xmlns="http://www.w3.org/2000/svg">
<path d="M49.5892 39.8347C49.9225 39.2213 50.4159 38.7547 51.0692 38.4347C51.7225 38.1147 52.5159 37.9547 53.4492 37.9547V39.8147C53.3425 39.8013 53.1959 39.7947 53.0092 39.7947C51.9692 39.7947 51.1492 40.108 50.5492 40.7347C49.9625 41.348 49.6692 42.228 49.6692 43.3747V48.6547H47.7492V38.0547H49.5892V39.8347ZM55.9656 38.0547H57.8856V48.6547H55.9656V38.0547ZM56.9256 36.0147C56.5523 36.0147 56.2389 35.8947 55.9856 35.6547C55.7456 35.4147 55.6256 35.1213 55.6256 34.7747C55.6256 34.428 55.7456 34.1347 55.9856 33.8947C56.2389 33.6413 56.5523 33.5147 56.9256 33.5147C57.2989 33.5147 57.6056 33.6347 57.8456 33.8747C58.0989 34.1013 58.2256 34.388 58.2256 34.7347C58.2256 35.0947 58.0989 35.4013 57.8456 35.6547C57.6056 35.8947 57.2989 36.0147 56.9256 36.0147ZM71.2815 43.4147C71.2815 43.5613 71.2682 43.7547 71.2415 43.9947H62.6415C62.7615 44.928 63.1682 45.6813 63.8615 46.2547C64.5682 46.8147 65.4415 47.0947 66.4815 47.0947C67.7482 47.0947 68.7682 46.668 69.5415 45.8147L70.6015 47.0547C70.1215 47.6147 69.5215 48.0413 68.8015 48.3347C68.0949 48.628 67.3015 48.7747 66.4215 48.7747C65.3015 48.7747 64.3082 48.548 63.4415 48.0947C62.5749 47.628 61.9015 46.9813 61.4215 46.1547C60.9549 45.328 60.7215 44.3947 60.7215 43.3547C60.7215 42.328 60.9482 41.4013 61.4015 40.5747C61.8682 39.748 62.5015 39.108 63.3015 38.6547C64.1149 38.188 65.0282 37.9547 66.0415 37.9547C67.0549 37.9547 67.9549 38.188 68.7415 38.6547C69.5415 39.108 70.1615 39.748 70.6015 40.5747C71.0549 41.4013 71.2815 42.348 71.2815 43.4147ZM66.0415 39.5747C65.1215 39.5747 64.3482 39.8547 63.7215 40.4147C63.1082 40.9747 62.7482 41.708 62.6415 42.6147H69.4415C69.3349 41.7213 68.9682 40.9947 68.3415 40.4347C67.7282 39.8613 66.9615 39.5747 66.0415 39.5747ZM77.9776 35.2747C76.831 35.2747 76.2576 35.8947 76.2576 37.1347V38.0547H79.3376V39.6347H76.2976V48.6547H74.3776V39.6347H72.5776V38.0547H74.3776V37.1147C74.3776 36.0613 74.6843 35.228 75.2976 34.6147C75.911 34.0013 76.771 33.6947 77.8776 33.6947C78.3043 33.6947 78.7043 33.748 79.0776 33.8547C79.451 33.9613 79.771 34.1147 80.0376 34.3147L79.4576 35.7747C79.0176 35.4413 78.5243 35.2747 77.9776 35.2747Z" fill="black"/>
<path d="M36.3236 36.16C38.7236 36.92 40.6036 38.2 41.9636 40C43.3236 41.76 44.0036 43.94 44.0036 46.54C44.0036 50.22 42.5636 53.06 39.6836 55.06C36.8436 57.02 32.6836 58 27.2036 58H5.48355V16H26.0036C31.1236 16 35.0436 16.98 37.7636 18.94C40.5236 20.9 41.9036 23.56 41.9036 26.92C41.9036 28.96 41.4036 30.78 40.4036 32.38C39.4436 33.98 38.0836 35.24 36.3236 36.16ZM15.1436 23.32V33.22H24.8036C27.2036 33.22 29.0236 32.8 30.2636 31.96C31.5036 31.12 32.1236 29.88 32.1236 28.24C32.1236 26.6 31.5036 25.38 30.2636 24.58C29.0236 23.74 27.2036 23.32 24.8036 23.32H15.1436ZM26.4836 50.68C29.0436 50.68 30.9636 50.26 32.2436 49.42C33.5636 48.58 34.2236 47.28 34.2236 45.52C34.2236 42.04 31.6436 40.3 26.4836 40.3H15.1436V50.68H26.4836Z" fill="url(#paint0_linear)"/>
<path d="M238.847 125.326L230.747 113.626H230.267H221.807V125.326H212.087V83.3262H230.267C233.987 83.3262 237.207 83.9462 239.927 85.1862C242.687 86.4262 244.807 88.1862 246.287 90.4662C247.767 92.7462 248.507 95.4462 248.507 98.5662C248.507 101.686 247.747 104.386 246.227 106.666C244.747 108.906 242.627 110.626 239.867 111.826L249.287 125.326H238.847ZM238.667 98.5662C238.667 96.2062 237.907 94.4062 236.387 93.1662C234.867 91.8862 232.647 91.2462 229.727 91.2462H221.807V105.886H229.727C232.647 105.886 234.867 105.246 236.387 103.966C237.907 102.686 238.667 100.886 238.667 98.5662Z" fill="url(#paint1_linear)"/>
<path d="M260.183 110.741C260.183 110.888 260.17 111.081 260.143 111.321H251.543C251.663 112.254 252.07 113.008 252.763 113.581C253.47 114.141 254.343 114.421 255.383 114.421C256.65 114.421 257.67 113.994 258.443 113.141L259.503 114.381C259.023 114.941 258.423 115.368 257.703 115.661C256.997 115.954 256.203 116.101 255.323 116.101C254.203 116.101 253.21 115.874 252.343 115.421C251.477 114.954 250.803 114.308 250.323 113.481C249.857 112.654 249.623 111.721 249.623 110.681C249.623 109.654 249.85 108.728 250.303 107.901C250.77 107.074 251.403 106.434 252.203 105.981C253.017 105.514 253.93 105.281 254.943 105.281C255.957 105.281 256.857 105.514 257.643 105.981C258.443 106.434 259.063 107.074 259.503 107.901C259.957 108.728 260.183 109.674 260.183 110.741ZM254.943 106.901C254.023 106.901 253.25 107.181 252.623 107.741C252.01 108.301 251.65 109.034 251.543 109.941H258.343C258.237 109.048 257.87 108.321 257.243 107.761C256.63 107.188 255.863 106.901 254.943 106.901ZM266.039 116.101C265.173 116.101 264.339 115.988 263.539 115.761C262.739 115.521 262.113 115.221 261.659 114.861L262.459 113.341C262.926 113.674 263.493 113.941 264.159 114.141C264.826 114.341 265.499 114.441 266.179 114.441C267.859 114.441 268.699 113.961 268.699 113.001C268.699 112.681 268.586 112.428 268.359 112.241C268.133 112.054 267.846 111.921 267.499 111.841C267.166 111.748 266.686 111.648 266.059 111.541C265.206 111.408 264.506 111.254 263.959 111.081C263.426 110.908 262.966 110.614 262.579 110.201C262.193 109.788 261.999 109.208 261.999 108.461C261.999 107.501 262.399 106.734 263.199 106.161C263.999 105.574 265.073 105.281 266.419 105.281C267.126 105.281 267.833 105.368 268.539 105.541C269.246 105.714 269.826 105.948 270.279 106.241L269.459 107.761C268.593 107.201 267.573 106.921 266.399 106.921C265.586 106.921 264.966 107.054 264.539 107.321C264.113 107.588 263.899 107.941 263.899 108.381C263.899 108.728 264.019 109.001 264.259 109.201C264.499 109.401 264.793 109.548 265.139 109.641C265.499 109.734 265.999 109.841 266.639 109.961C267.493 110.108 268.179 110.268 268.699 110.441C269.233 110.601 269.686 110.881 270.059 111.281C270.433 111.681 270.619 112.241 270.619 112.961C270.619 113.921 270.206 114.688 269.379 115.261C268.566 115.821 267.453 116.101 266.039 116.101ZM282.749 110.741C282.749 110.888 282.735 111.081 282.709 111.321H274.109C274.229 112.254 274.635 113.008 275.329 113.581C276.035 114.141 276.909 114.421 277.949 114.421C279.215 114.421 280.235 113.994 281.009 113.141L282.069 114.381C281.589 114.941 280.989 115.368 280.269 115.661C279.562 115.954 278.769 116.101 277.889 116.101C276.769 116.101 275.775 115.874 274.909 115.421C274.042 114.954 273.369 114.308 272.889 113.481C272.422 112.654 272.189 111.721 272.189 110.681C272.189 109.654 272.415 108.728 272.869 107.901C273.335 107.074 273.969 106.434 274.769 105.981C275.582 105.514 276.495 105.281 277.509 105.281C278.522 105.281 279.422 105.514 280.209 105.981C281.009 106.434 281.629 107.074 282.069 107.901C282.522 108.728 282.749 109.674 282.749 110.741ZM277.509 106.901C276.589 106.901 275.815 107.181 275.189 107.741C274.575 108.301 274.215 109.034 274.109 109.941H280.909C280.802 109.048 280.435 108.321 279.809 107.761C279.195 107.188 278.429 106.901 277.509 106.901ZM289.132 105.281C290.599 105.281 291.719 105.641 292.492 106.361C293.279 107.081 293.672 108.154 293.672 109.581V115.981H291.852V114.581C291.532 115.074 291.072 115.454 290.472 115.721C289.885 115.974 289.185 116.101 288.372 116.101C287.185 116.101 286.232 115.814 285.512 115.241C284.805 114.668 284.452 113.914 284.452 112.981C284.452 112.048 284.792 111.301 285.472 110.741C286.152 110.168 287.232 109.881 288.712 109.881H291.752V109.501C291.752 108.674 291.512 108.041 291.032 107.601C290.552 107.161 289.845 106.941 288.912 106.941C288.285 106.941 287.672 107.048 287.072 107.261C286.472 107.461 285.965 107.734 285.552 108.081L284.752 106.641C285.299 106.201 285.952 105.868 286.712 105.641C287.472 105.401 288.279 105.281 289.132 105.281ZM288.692 114.621C289.425 114.621 290.059 114.461 290.592 114.141C291.125 113.808 291.512 113.341 291.752 112.741V111.261H288.792C287.165 111.261 286.352 111.808 286.352 112.901C286.352 113.434 286.559 113.854 286.972 114.161C287.385 114.468 287.959 114.621 288.692 114.621ZM299.215 107.161C299.548 106.548 300.042 106.081 300.695 105.761C301.348 105.441 302.142 105.281 303.075 105.281V107.141C302.968 107.128 302.822 107.121 302.635 107.121C301.595 107.121 300.775 107.434 300.175 108.061C299.588 108.674 299.295 109.554 299.295 110.701V115.981H297.375V105.381H299.215V107.161ZM310.114 116.101C309.034 116.101 308.067 115.868 307.214 115.401C306.374 114.934 305.714 114.294 305.234 113.481C304.754 112.654 304.514 111.721 304.514 110.681C304.514 109.641 304.754 108.714 305.234 107.901C305.714 107.074 306.374 106.434 307.214 105.981C308.067 105.514 309.034 105.281 310.114 105.281C311.074 105.281 311.927 105.474 312.674 105.861C313.434 106.248 314.02 106.808 314.434 107.541L312.974 108.481C312.64 107.974 312.227 107.594 311.734 107.341C311.24 107.088 310.694 106.961 310.094 106.961C309.4 106.961 308.774 107.114 308.214 107.421C307.667 107.728 307.234 108.168 306.914 108.741C306.607 109.301 306.454 109.948 306.454 110.681C306.454 111.428 306.607 112.088 306.914 112.661C307.234 113.221 307.667 113.654 308.214 113.961C308.774 114.268 309.4 114.421 310.094 114.421C310.694 114.421 311.24 114.294 311.734 114.041C312.227 113.788 312.64 113.408 312.974 112.901L314.434 113.821C314.02 114.554 313.434 115.121 312.674 115.521C311.927 115.908 311.074 116.101 310.114 116.101ZM322.593 105.281C323.94 105.281 325.006 105.674 325.793 106.461C326.593 107.234 326.993 108.374 326.993 109.881V115.981H325.073V110.101C325.073 109.074 324.826 108.301 324.333 107.781C323.84 107.261 323.133 107.001 322.213 107.001C321.173 107.001 320.353 107.308 319.753 107.921C319.153 108.521 318.853 109.388 318.853 110.521V115.981H316.933V101.141H318.853V106.881C319.253 106.374 319.773 105.981 320.413 105.701C321.066 105.421 321.793 105.281 322.593 105.281Z" fill="black"/>
<path d="M418.274 226.561C414.954 226.561 411.734 226.121 408.614 225.241C405.534 224.321 403.054 223.141 401.174 221.701L404.474 214.381C406.274 215.701 408.414 216.761 410.894 217.561C413.374 218.361 415.854 218.761 418.334 218.761C421.094 218.761 423.134 218.361 424.454 217.561C425.774 216.721 426.434 215.621 426.434 214.261C426.434 213.261 426.034 212.441 425.234 211.801C424.474 211.121 423.474 210.581 422.234 210.181C421.034 209.781 419.394 209.341 417.314 208.861C414.114 208.101 411.494 207.341 409.454 206.581C407.414 205.821 405.654 204.601 404.174 202.921C402.734 201.241 402.014 199.001 402.014 196.201C402.014 193.761 402.674 191.561 403.994 189.601C405.314 187.601 407.294 186.021 409.934 184.861C412.614 183.701 415.874 183.121 419.714 183.121C422.394 183.121 425.014 183.441 427.574 184.081C430.134 184.721 432.374 185.641 434.294 186.841L431.294 194.221C427.414 192.021 423.534 190.921 419.654 190.921C416.934 190.921 414.914 191.361 413.594 192.241C412.314 193.121 411.674 194.281 411.674 195.721C411.674 197.161 412.414 198.241 413.894 198.961C415.414 199.641 417.714 200.321 420.794 201.001C423.994 201.761 426.614 202.521 428.654 203.281C430.694 204.041 432.434 205.241 433.874 206.881C435.354 208.521 436.094 210.741 436.094 213.541C436.094 215.941 435.414 218.141 434.054 220.141C432.734 222.101 430.734 223.661 428.054 224.821C425.374 225.981 422.114 226.561 418.274 226.561Z" fill="url(#paint2_linear)"/>
<path d="M446.021 215.876C445.741 216.116 445.394 216.303 444.981 216.436C444.567 216.556 444.141 216.616 443.701 216.616C442.634 216.616 441.807 216.329 441.221 215.756C440.634 215.183 440.341 214.363 440.341 213.296V207.476H438.541V205.896H440.341V203.576H442.261V205.896H445.301V207.476H442.261V213.216C442.261 213.789 442.401 214.229 442.681 214.536C442.974 214.843 443.387 214.996 443.921 214.996C444.507 214.996 445.007 214.829 445.421 214.496L446.021 215.876ZM457.677 205.896L452.537 217.556C452.083 218.636 451.55 219.396 450.937 219.836C450.337 220.276 449.61 220.496 448.757 220.496C448.237 220.496 447.73 220.409 447.237 220.236C446.757 220.076 446.357 219.836 446.037 219.516L446.857 218.076C447.403 218.596 448.037 218.856 448.757 218.856C449.223 218.856 449.61 218.729 449.917 218.476C450.237 218.236 450.523 217.816 450.777 217.216L451.117 216.476L446.437 205.896H448.437L452.137 214.376L455.797 205.896H457.677ZM459.619 201.656H461.539V216.496H459.619V201.656ZM474.934 211.256C474.934 211.403 474.921 211.596 474.894 211.836H466.294C466.414 212.769 466.821 213.523 467.514 214.096C468.221 214.656 469.094 214.936 470.134 214.936C471.401 214.936 472.421 214.509 473.194 213.656L474.254 214.896C473.774 215.456 473.174 215.883 472.454 216.176C471.748 216.469 470.954 216.616 470.074 216.616C468.954 216.616 467.961 216.389 467.094 215.936C466.228 215.469 465.554 214.823 465.074 213.996C464.608 213.169 464.374 212.236 464.374 211.196C464.374 210.169 464.601 209.243 465.054 208.416C465.521 207.589 466.154 206.949 466.954 206.496C467.768 206.029 468.681 205.796 469.694 205.796C470.708 205.796 471.608 206.029 472.394 206.496C473.194 206.949 473.814 207.589 474.254 208.416C474.708 209.243 474.934 210.189 474.934 211.256ZM469.694 207.416C468.774 207.416 468.001 207.696 467.374 208.256C466.761 208.816 466.401 209.549 466.294 210.456H473.094C472.988 209.563 472.621 208.836 471.994 208.276C471.381 207.703 470.614 207.416 469.694 207.416ZM480.791 216.616C479.924 216.616 479.091 216.503 478.291 216.276C477.491 216.036 476.864 215.736 476.411 215.376L477.211 213.856C477.677 214.189 478.244 214.456 478.911 214.656C479.577 214.856 480.251 214.956 480.931 214.956C482.611 214.956 483.451 214.476 483.451 213.516C483.451 213.196 483.337 212.943 483.111 212.756C482.884 212.569 482.597 212.436 482.251 212.356C481.917 212.263 481.437 212.163 480.811 212.056C479.957 211.923 479.257 211.769 478.711 211.596C478.177 211.423 477.717 211.129 477.331 210.716C476.944 210.303 476.751 209.723 476.751 208.976C476.751 208.016 477.151 207.249 477.951 206.676C478.751 206.089 479.824 205.796 481.171 205.796C481.877 205.796 482.584 205.883 483.291 206.056C483.997 206.229 484.577 206.463 485.031 206.756L484.211 208.276C483.344 207.716 482.324 207.436 481.151 207.436C480.337 207.436 479.717 207.569 479.291 207.836C478.864 208.103 478.651 208.456 478.651 208.896C478.651 209.243 478.771 209.516 479.011 209.716C479.251 209.916 479.544 210.063 479.891 210.156C480.251 210.249 480.751 210.356 481.391 210.476C482.244 210.623 482.931 210.783 483.451 210.956C483.984 211.116 484.437 211.396 484.811 211.796C485.184 212.196 485.371 212.756 485.371 213.476C485.371 214.436 484.957 215.203 484.131 215.776C483.317 216.336 482.204 216.616 480.791 216.616ZM492.54 216.616C491.46 216.616 490.493 216.383 489.64 215.916C488.8 215.449 488.14 214.809 487.66 213.996C487.18 213.169 486.94 212.236 486.94 211.196C486.94 210.156 487.18 209.229 487.66 208.416C488.14 207.589 488.8 206.949 489.64 206.496C490.493 206.029 491.46 205.796 492.54 205.796C493.5 205.796 494.353 205.989 495.1 206.376C495.86 206.763 496.447 207.323 496.86 208.056L495.4 208.996C495.067 208.489 494.653 208.109 494.16 207.856C493.667 207.603 493.12 207.476 492.52 207.476C491.827 207.476 491.2 207.629 490.64 207.936C490.093 208.243 489.66 208.683 489.34 209.256C489.033 209.816 488.88 210.463 488.88 211.196C488.88 211.943 489.033 212.603 489.34 213.176C489.66 213.736 490.093 214.169 490.64 214.476C491.2 214.783 491.827 214.936 492.52 214.936C493.12 214.936 493.667 214.809 494.16 214.556C494.653 214.303 495.067 213.923 495.4 213.416L496.86 214.336C496.447 215.069 495.86 215.636 495.1 216.036C494.353 216.423 493.5 216.616 492.54 216.616ZM503.356 205.796C504.823 205.796 505.943 206.156 506.716 206.876C507.503 207.596 507.896 208.669 507.896 210.096V216.496H506.076V215.096C505.756 215.589 505.296 215.969 504.696 216.236C504.109 216.489 503.409 216.616 502.596 216.616C501.409 216.616 500.456 216.329 499.736 215.756C499.029 215.183 498.676 214.429 498.676 213.496C498.676 212.563 499.016 211.816 499.696 211.256C500.376 210.683 501.456 210.396 502.936 210.396H505.976V210.016C505.976 209.189 505.736 208.556 505.256 208.116C504.776 207.676 504.069 207.456 503.136 207.456C502.509 207.456 501.896 207.563 501.296 207.776C500.696 207.976 500.189 208.249 499.776 208.596L498.976 207.156C499.523 206.716 500.176 206.383 500.936 206.156C501.696 205.916 502.503 205.796 503.356 205.796ZM502.916 215.136C503.649 215.136 504.283 214.976 504.816 214.656C505.349 214.323 505.736 213.856 505.976 213.256V211.776H503.016C501.389 211.776 500.576 212.323 500.576 213.416C500.576 213.949 500.783 214.369 501.196 214.676C501.609 214.983 502.183 215.136 502.916 215.136ZM517.219 205.796C518.246 205.796 519.166 206.023 519.979 206.476C520.792 206.929 521.426 207.563 521.879 208.376C522.346 209.189 522.579 210.129 522.579 211.196C522.579 212.263 522.346 213.209 521.879 214.036C521.426 214.849 520.792 215.483 519.979 215.936C519.166 216.389 518.246 216.616 517.219 216.616C516.459 216.616 515.759 216.469 515.119 216.176C514.492 215.883 513.959 215.456 513.519 214.896V220.376H511.599V205.896H513.439V207.576C513.866 206.989 514.406 206.549 515.059 206.256C515.712 205.949 516.432 205.796 517.219 205.796ZM517.059 214.936C517.739 214.936 518.346 214.783 518.879 214.476C519.426 214.156 519.852 213.716 520.159 213.156C520.479 212.583 520.639 211.929 520.639 211.196C520.639 210.463 520.479 209.816 520.159 209.256C519.852 208.683 519.426 208.243 518.879 207.936C518.346 207.629 517.739 207.476 517.059 207.476C516.392 207.476 515.786 207.636 515.239 207.956C514.706 208.263 514.279 208.696 513.959 209.256C513.652 209.816 513.499 210.463 513.499 211.196C513.499 211.929 513.652 212.583 513.959 213.156C514.266 213.716 514.692 214.156 515.239 214.476C515.786 214.783 516.392 214.936 517.059 214.936ZM534.962 211.256C534.962 211.403 534.948 211.596 534.922 211.836H526.322C526.442 212.769 526.848 213.523 527.542 214.096C528.248 214.656 529.122 214.936 530.162 214.936C531.428 214.936 532.448 214.509 533.222 213.656L534.282 214.896C533.802 215.456 533.202 215.883 532.482 216.176C531.775 216.469 530.982 216.616 530.102 216.616C528.982 216.616 527.988 216.389 527.122 215.936C526.255 215.469 525.582 214.823 525.102 213.996C524.635 213.169 524.402 212.236 524.402 211.196C524.402 210.169 524.628 209.243 525.082 208.416C525.548 207.589 526.182 206.949 526.982 206.496C527.795 206.029 528.708 205.796 529.722 205.796C530.735 205.796 531.635 206.029 532.422 206.496C533.222 206.949 533.842 207.589 534.282 208.416C534.735 209.243 534.962 210.189 534.962 211.256ZM529.722 207.416C528.802 207.416 528.028 207.696 527.402 208.256C526.788 208.816 526.428 209.549 526.322 210.456H533.122C533.015 209.563 532.648 208.836 532.022 208.276C531.408 207.703 530.642 207.416 529.722 207.416Z" fill="black"/>
<path d="M638.201 420.234L638.141 395.034L625.781 415.794H621.401L609.101 395.574V420.234H599.981V378.234H608.021L623.741 404.334L639.221 378.234H647.201L647.321 420.234H638.201Z" fill="url(#paint3_linear)"/>
<path d="M659.841 411.009C658.788 411.009 657.841 410.775 657.001 410.309C656.161 409.842 655.501 409.202 655.021 408.389C654.555 407.562 654.321 406.629 654.321 405.589C654.321 404.549 654.555 403.622 655.021 402.809C655.501 401.982 656.161 401.342 657.001 400.889C657.841 400.422 658.788 400.189 659.841 400.189C660.895 400.189 661.835 400.422 662.661 400.889C663.501 401.342 664.155 401.982 664.621 402.809C665.101 403.622 665.341 404.549 665.341 405.589C665.341 406.629 665.101 407.562 664.621 408.389C664.155 409.202 663.501 409.842 662.661 410.309C661.835 410.775 660.895 411.009 659.841 411.009ZM659.841 409.329C660.521 409.329 661.128 409.175 661.661 408.869C662.208 408.549 662.635 408.109 662.941 407.549C663.248 406.975 663.401 406.322 663.401 405.589C663.401 404.855 663.248 404.209 662.941 403.649C662.635 403.075 662.208 402.635 661.661 402.329C661.128 402.022 660.521 401.869 659.841 401.869C659.161 401.869 658.548 402.022 658.001 402.329C657.468 402.635 657.041 403.075 656.721 403.649C656.415 404.209 656.261 404.855 656.261 405.589C656.261 406.322 656.415 406.975 656.721 407.549C657.041 408.109 657.468 408.549 658.001 408.869C658.548 409.175 659.161 409.329 659.841 409.329ZM672.767 411.009C671.687 411.009 670.72 410.775 669.867 410.309C669.027 409.842 668.367 409.202 667.887 408.389C667.407 407.562 667.167 406.629 667.167 405.589C667.167 404.549 667.407 403.622 667.887 402.809C668.367 401.982 669.027 401.342 669.867 400.889C670.72 400.422 671.687 400.189 672.767 400.189C673.727 400.189 674.58 400.382 675.327 400.769C676.087 401.155 676.673 401.715 677.087 402.449L675.627 403.389C675.293 402.882 674.88 402.502 674.387 402.249C673.893 401.995 673.347 401.869 672.747 401.869C672.053 401.869 671.427 402.022 670.867 402.329C670.32 402.635 669.887 403.075 669.567 403.649C669.26 404.209 669.107 404.855 669.107 405.589C669.107 406.335 669.26 406.995 669.567 407.569C669.887 408.129 670.32 408.562 670.867 408.869C671.427 409.175 672.053 409.329 672.747 409.329C673.347 409.329 673.893 409.202 674.387 408.949C674.88 408.695 675.293 408.315 675.627 407.809L677.087 408.729C676.673 409.462 676.087 410.029 675.327 410.429C674.58 410.815 673.727 411.009 672.767 411.009ZM683.706 405.949L681.506 407.989V410.889H679.586V396.049H681.506V405.569L687.286 400.289H689.606L685.146 404.669L690.046 410.889H687.686L683.706 405.949ZM701.745 400.289V410.889H699.925V409.289C699.538 409.835 699.025 410.262 698.385 410.569C697.758 410.862 697.071 411.009 696.325 411.009C694.911 411.009 693.798 410.622 692.985 409.849C692.171 409.062 691.765 407.909 691.765 406.389V400.289H693.685V406.169C693.685 407.195 693.931 407.975 694.425 408.509C694.918 409.029 695.625 409.289 696.545 409.289C697.558 409.289 698.358 408.982 698.945 408.369C699.531 407.755 699.825 406.889 699.825 405.769V400.289H701.745ZM711.17 400.189C712.197 400.189 713.117 400.415 713.93 400.869C714.743 401.322 715.377 401.955 715.83 402.769C716.297 403.582 716.53 404.522 716.53 405.589C716.53 406.655 716.297 407.602 715.83 408.429C715.377 409.242 714.743 409.875 713.93 410.329C713.117 410.782 712.197 411.009 711.17 411.009C710.41 411.009 709.71 410.862 709.07 410.569C708.443 410.275 707.91 409.849 707.47 409.289V414.769H705.55V400.289H707.39V401.969C707.817 401.382 708.357 400.942 709.01 400.649C709.663 400.342 710.383 400.189 711.17 400.189ZM711.01 409.329C711.69 409.329 712.297 409.175 712.83 408.869C713.377 408.549 713.803 408.109 714.11 407.549C714.43 406.975 714.59 406.322 714.59 405.589C714.59 404.855 714.43 404.209 714.11 403.649C713.803 403.075 713.377 402.635 712.83 402.329C712.297 402.022 711.69 401.869 711.01 401.869C710.343 401.869 709.737 402.029 709.19 402.349C708.657 402.655 708.23 403.089 707.91 403.649C707.603 404.209 707.45 404.855 707.45 405.589C707.45 406.322 707.603 406.975 707.91 407.549C708.217 408.109 708.643 408.549 709.19 408.869C709.737 409.175 710.343 409.329 711.01 409.329ZM722.373 411.009C721.506 411.009 720.673 410.895 719.873 410.669C719.073 410.429 718.446 410.129 717.993 409.769L718.793 408.249C719.259 408.582 719.826 408.849 720.493 409.049C721.159 409.249 721.833 409.349 722.513 409.349C724.193 409.349 725.033 408.869 725.033 407.909C725.033 407.589 724.919 407.335 724.693 407.149C724.466 406.962 724.179 406.829 723.833 406.749C723.499 406.655 723.019 406.555 722.393 406.449C721.539 406.315 720.839 406.162 720.293 405.989C719.759 405.815 719.299 405.522 718.913 405.109C718.526 404.695 718.333 404.115 718.333 403.369C718.333 402.409 718.733 401.642 719.533 401.069C720.333 400.482 721.406 400.189 722.753 400.189C723.459 400.189 724.166 400.275 724.873 400.449C725.579 400.622 726.159 400.855 726.613 401.149L725.793 402.669C724.926 402.109 723.906 401.829 722.733 401.829C721.919 401.829 721.299 401.962 720.873 402.229C720.446 402.495 720.233 402.849 720.233 403.289C720.233 403.635 720.353 403.909 720.593 404.109C720.833 404.309 721.126 404.455 721.473 404.549C721.833 404.642 722.333 404.749 722.973 404.869C723.826 405.015 724.513 405.175 725.033 405.349C725.566 405.509 726.019 405.789 726.393 406.189C726.766 406.589 726.953 407.149 726.953 407.869C726.953 408.829 726.539 409.595 725.713 410.169C724.899 410.729 723.786 411.009 722.373 411.009Z" fill="black"/>
<path d="M745.921 824.674H726.421L722.701 833.674H712.741L731.461 791.674H741.061L759.841 833.674H749.641L745.921 824.674ZM742.861 817.294L736.201 801.214L729.541 817.294H742.861Z" fill="url(#paint4_linear)"/>
<path d="M772.032 813.629C773.058 813.629 773.978 813.855 774.792 814.309C775.605 814.762 776.238 815.395 776.692 816.209C777.158 817.022 777.392 817.962 777.392 819.029C777.392 820.095 777.158 821.042 776.692 821.869C776.238 822.682 775.605 823.315 774.792 823.769C773.978 824.222 773.058 824.449 772.032 824.449C771.272 824.449 770.572 824.302 769.932 824.009C769.305 823.715 768.772 823.289 768.332 822.729V828.209H766.412V813.729H768.252V815.409C768.678 814.822 769.218 814.382 769.872 814.089C770.525 813.782 771.245 813.629 772.032 813.629ZM771.872 822.769C772.552 822.769 773.158 822.615 773.692 822.309C774.238 821.989 774.665 821.549 774.972 820.989C775.292 820.415 775.452 819.762 775.452 819.029C775.452 818.295 775.292 817.649 774.972 817.089C774.665 816.515 774.238 816.075 773.692 815.769C773.158 815.462 772.552 815.309 771.872 815.309C771.205 815.309 770.598 815.469 770.052 815.789C769.518 816.095 769.092 816.529 768.772 817.089C768.465 817.649 768.312 818.295 768.312 819.029C768.312 819.762 768.465 820.415 768.772 820.989C769.078 821.549 769.505 821.989 770.052 822.309C770.598 822.615 771.205 822.769 771.872 822.769ZM785.815 813.629C786.841 813.629 787.761 813.855 788.575 814.309C789.388 814.762 790.021 815.395 790.475 816.209C790.941 817.022 791.175 817.962 791.175 819.029C791.175 820.095 790.941 821.042 790.475 821.869C790.021 822.682 789.388 823.315 788.575 823.769C787.761 824.222 786.841 824.449 785.815 824.449C785.055 824.449 784.355 824.302 783.715 824.009C783.088 823.715 782.555 823.289 782.115 822.729V828.209H780.195V813.729H782.035V815.409C782.461 814.822 783.001 814.382 783.655 814.089C784.308 813.782 785.028 813.629 785.815 813.629ZM785.655 822.769C786.335 822.769 786.941 822.615 787.475 822.309C788.021 821.989 788.448 821.549 788.755 820.989C789.075 820.415 789.235 819.762 789.235 819.029C789.235 818.295 789.075 817.649 788.755 817.089C788.448 816.515 788.021 816.075 787.475 815.769C786.941 815.462 786.335 815.309 785.655 815.309C784.988 815.309 784.381 815.469 783.835 815.789C783.301 816.095 782.875 816.529 782.555 817.089C782.248 817.649 782.095 818.295 782.095 819.029C782.095 819.762 782.248 820.415 782.555 820.989C782.861 821.549 783.288 821.989 783.835 822.309C784.381 822.615 784.988 822.769 785.655 822.769ZM795.817 815.509C796.151 814.895 796.644 814.429 797.297 814.109C797.951 813.789 798.744 813.629 799.677 813.629V815.489C799.571 815.475 799.424 815.469 799.237 815.469C798.197 815.469 797.377 815.782 796.777 816.409C796.191 817.022 795.897 817.902 795.897 819.049V824.329H793.977V813.729H795.817V815.509ZM806.636 824.449C805.583 824.449 804.636 824.215 803.796 823.749C802.956 823.282 802.296 822.642 801.816 821.829C801.35 821.002 801.116 820.069 801.116 819.029C801.116 817.989 801.35 817.062 801.816 816.249C802.296 815.422 802.956 814.782 803.796 814.329C804.636 813.862 805.583 813.629 806.636 813.629C807.69 813.629 808.63 813.862 809.456 814.329C810.296 814.782 810.95 815.422 811.416 816.249C811.896 817.062 812.136 817.989 812.136 819.029C812.136 820.069 811.896 821.002 811.416 821.829C810.95 822.642 810.296 823.282 809.456 823.749C808.63 824.215 807.69 824.449 806.636 824.449ZM806.636 822.769C807.316 822.769 807.923 822.615 808.456 822.309C809.003 821.989 809.43 821.549 809.736 820.989C810.043 820.415 810.196 819.762 810.196 819.029C810.196 818.295 810.043 817.649 809.736 817.089C809.43 816.515 809.003 816.075 808.456 815.769C807.923 815.462 807.316 815.309 806.636 815.309C805.956 815.309 805.343 815.462 804.796 815.769C804.263 816.075 803.836 816.515 803.516 817.089C803.21 817.649 803.056 818.295 803.056 819.029C803.056 819.762 803.21 820.415 803.516 820.989C803.836 821.549 804.263 821.989 804.796 822.309C805.343 822.615 805.956 822.769 806.636 822.769ZM824.029 813.729L819.389 824.329H817.429L812.789 813.729H814.789L818.429 822.229L822.149 813.729H824.029ZM829.498 813.629C830.965 813.629 832.085 813.989 832.858 814.709C833.645 815.429 834.038 816.502 834.038 817.929V824.329H832.218V822.929C831.898 823.422 831.438 823.802 830.838 824.069C830.252 824.322 829.552 824.449 828.738 824.449C827.552 824.449 826.598 824.162 825.878 823.589C825.172 823.015 824.818 822.262 824.818 821.329C824.818 820.395 825.158 819.649 825.838 819.089C826.518 818.515 827.598 818.229 829.078 818.229H832.118V817.849C832.118 817.022 831.878 816.389 831.398 815.949C830.918 815.509 830.212 815.289 829.278 815.289C828.652 815.289 828.038 815.395 827.438 815.609C826.838 815.809 826.332 816.082 825.918 816.429L825.118 814.989C825.665 814.549 826.318 814.215 827.078 813.989C827.838 813.749 828.645 813.629 829.498 813.629ZM829.058 822.969C829.792 822.969 830.425 822.809 830.958 822.489C831.492 822.155 831.878 821.689 832.118 821.089V819.609H829.158C827.532 819.609 826.718 820.155 826.718 821.249C826.718 821.782 826.925 822.202 827.338 822.509C827.752 822.815 828.325 822.969 829.058 822.969ZM837.741 809.489H839.661V824.329H837.741V809.489Z" fill="black"/>
<defs>
<linearGradient id="paint0_linear" x1="23.443" y1="0" x2="23.443" y2="67.3262" gradientUnits="userSpaceOnUse">
<stop stop-color="#FB541C"/>
<stop offset="0.921875" stop-color="#F21E5F"/>
</linearGradient>
<linearGradient id="paint1_linear" x1="229.168" y1="67.3262" x2="229.168" y2="134.652" gradientUnits="userSpaceOnUse">
<stop stop-color="#FB541C"/>
<stop offset="0.921875" stop-color="#F21E5F"/>
</linearGradient>
<linearGradient id="paint2_linear" x1="418.625" y1="167.841" x2="418.625" y2="235.168" gradientUnits="userSpaceOnUse">
<stop stop-color="#FB541C"/>
<stop offset="0.921875" stop-color="#F21E5F"/>
</linearGradient>
<linearGradient id="paint3_linear" x1="623.653" y1="362.234" x2="623.653" y2="429.56" gradientUnits="userSpaceOnUse">
<stop stop-color="#FB541C"/>
<stop offset="0.921875" stop-color="#F21E5F"/>
</linearGradient>
<linearGradient id="paint4_linear" x1="736.25" y1="775.674" x2="736.25" y2="843" gradientUnits="userSpaceOnUse">
<stop stop-color="#FB541C"/>
<stop offset="0.921875" stop-color="#F21E5F"/>
</linearGradient>
</defs>
</svg>
