<svg width="250" height="370" viewBox="0 0 250 370" fill="none" xmlns="http://www.w3.org/2000/svg">
<path d="M129.158 354.224L112.664 348.165L47.1001 288.978L54.2928 286.722L54.3172 286.759L54.4269 287.039L129.158 354.224Z" fill="#D1D3D4"/>
<path d="M45.5399 134.48L50.7821 174.711L54.9515 166.957L50.8552 175.284L40.1637 211.93L39.6151 218.342L8.19861 184.939C8.19861 184.658 8.19861 184.39 8.12547 184.122C5.39539 153.831 4.65421 123.394 5.90669 93.0058L51.7696 140.441L45.5399 134.48Z" fill="url(#paint0_linear)"/>
<path d="M148.664 133.115L117.467 130.311L104.63 129.091L104.435 126.47L103.874 118.827L99.2783 55.311C115.127 76.4869 131.438 100.528 142.228 121.362L143.447 123.605C145.068 126.946 147.311 129.981 148.664 133.115Z" fill="url(#paint1_linear)"/>
<path d="M93.1939 62.6013L96.961 115.742C96.961 116.197 96.961 116.648 96.961 117.095C97.1677 119.842 96.5899 122.59 95.2949 125.02C93.9999 127.45 92.0409 129.463 89.6463 130.823L68.3607 143.343C67.1463 144.059 65.7319 144.36 64.3311 144.202C62.9303 144.044 61.619 143.434 60.595 142.465L8.94131 88.995C8.52603 88.584 8.21523 88.0796 8.03495 87.5239C7.85466 86.9682 7.81012 86.3774 7.90506 85.8009C8.16108 84.1795 8.44147 82.6922 8.75844 81.2902C17.8652 40.8036 47.5383 4.87644 51.0371 1.40198C55.048 3.40132 69.1043 22.6023 88.6467 47.9598C89.244 48.8741 89.8658 49.7884 90.4387 50.7028C92.2663 54.402 93.2095 58.4752 93.1939 62.6013V62.6013Z" fill="url(#paint2_linear)"/>
<path d="M104.496 129.872L96.2913 203.75L75.8103 171.309L63.2656 151.438L77.0294 144.245L104.496 129.872Z" fill="url(#paint3_linear)"/>
<path d="M155.649 159.862C167.401 208.468 168.169 274.202 168.657 298.438C168.65 298.862 168.509 299.272 168.256 299.612C168.002 299.952 167.649 300.203 167.245 300.331C166.841 300.459 166.407 300.457 166.004 300.325C165.601 300.193 165.25 299.938 165 299.596L102.167 205.639C100.209 202.605 99.4568 198.948 100.058 195.387L109.811 138.332C109.976 137.337 110.48 136.429 111.237 135.763C111.995 135.096 112.959 134.712 113.968 134.675L134.498 133.322C136.865 133.17 139.228 133.686 141.316 134.811C143.405 135.936 145.135 137.625 146.311 139.686C149.712 145.769 153.942 152.767 155.649 159.862Z" fill="url(#paint4_linear)"/>
<path d="M148.372 132.395C148.372 132.395 148.372 132.298 148.372 132.286L148.164 131.895L104.983 127.604L99.8144 57.0543L99.7413 56.079V55.9083L99.6315 55.7621L99.2902 55.311C97.3071 52.6858 95.3321 50.0973 93.3653 47.5453C74.1521 22.651 55.1828 1.3654 51.1354 0.10972L50.7331 0L50.477 0.243822C50.0747 0.621746 12.1239 37.7924 2.51729 81.1195C2.13936 82.8385 1.79801 84.6549 1.48104 86.6787C1.48104 87.0688 1.37132 87.4833 1.31037 87.8978V88.2025C-2.34696 115.023 2.33442 155.254 6.97923 184.293C10.2952 205.018 13.5868 220.256 13.6112 220.403V220.464L44.9667 288.685L111.932 349.141L131.597 356.455L131.914 356.748L132.852 355.956L174.424 320.601L174.619 320.418V319.797V318.309C174.387 312.677 169.925 182.281 148.372 132.395ZM7.90575 85.7521C8.16176 84.1307 8.44216 82.6434 8.75913 81.2414C17.8659 40.8036 47.539 4.87644 51.0378 1.40198C55.0487 3.40131 69.105 22.6023 88.6474 47.9598C89.2447 48.8741 89.8665 49.7884 90.4394 50.7028C92.267 54.402 93.2101 58.4752 93.1946 62.6013L96.9617 115.742C96.9617 116.197 96.9617 116.648 96.9617 117.095C97.1684 119.841 96.5906 122.59 95.2956 125.02C94.0006 127.45 92.0416 129.463 89.647 130.823L68.3614 143.343C67.1469 144.059 65.7326 144.36 64.3318 144.202C62.931 144.044 61.6197 143.434 60.5956 142.465L8.94199 88.995C8.51928 88.579 8.20408 88.0664 8.02355 87.5015C7.84303 86.9365 7.8026 86.3362 7.90575 85.7521V85.7521ZM103.484 131.079L95.6572 201.592L64.1311 151.682L103.484 131.079ZM112.664 348.165L47.1001 288.929L46.8319 288.685L45.9541 287.905L34.1654 262.304L15.7812 222.329L15.1351 220.939L14.7571 220.11C11.6133 208.585 9.41965 196.822 8.19834 184.939C8.19834 184.658 8.19833 184.39 8.12519 184.122C5.39511 153.831 4.65393 123.394 5.90641 93.0058L51.7693 140.441L51.879 140.539L52.0619 140.722L62.5218 151.56L54.9634 166.908L50.8672 175.235L40.1634 211.93L39.6148 218.342L37.5179 242.725L37.457 243.359L44.3571 261.072L54.3294 286.674L54.4391 286.954L129.158 354.224L112.664 348.165ZM135.949 351.299C135.172 351.96 134.176 352.307 133.156 352.271C132.136 352.235 131.166 351.819 130.438 351.103L67.191 288.49C63.8134 285.139 60.9389 281.316 58.6573 277.14L43.3453 249.235C41.4226 245.751 40.5743 241.777 40.907 237.812L42.6016 218.94C42.9485 214.88 43.9617 210.906 45.6006 207.175L53.6955 188.816L58.5719 181.355C59.3142 180.232 60.2987 179.289 61.453 178.597C62.6074 177.904 63.9022 177.479 65.2424 177.353C66.5825 177.227 67.934 177.402 69.1973 177.867C70.4607 178.332 71.6039 179.074 72.5429 180.038L88.1353 198.178C92.4316 202.757 96.3841 207.647 99.9607 212.808L173.314 319.894L135.949 351.299ZM164.964 299.596L102.167 205.639C100.21 202.605 99.4573 198.948 100.058 195.387L109.811 138.332C109.976 137.337 110.48 136.429 111.238 135.763C111.995 135.096 112.96 134.712 113.968 134.675L134.498 133.322C136.865 133.17 139.228 133.686 141.317 134.811C143.405 135.936 145.136 137.625 146.311 139.686C149.737 145.72 153.967 152.718 155.674 159.813C167.402 208.468 168.17 274.202 168.657 298.438C168.661 298.872 168.525 299.295 168.269 299.645C168.014 299.996 167.653 300.255 167.239 300.384C166.826 300.514 166.381 300.508 165.971 300.366C165.562 300.224 165.208 299.954 164.964 299.596V299.596Z" fill="#F1F2F2"/>
<path d="M173.266 319.894L135.949 351.299C135.172 351.96 134.176 352.307 133.156 352.271C132.136 352.235 131.166 351.819 130.438 351.103L67.191 288.49C63.8134 285.139 60.939 281.316 58.6573 277.14L43.3453 249.235C41.4226 245.751 40.5743 241.777 40.907 237.812L42.6016 218.94C42.9485 214.88 43.9617 210.906 45.6006 207.175L53.6955 188.816L58.5719 181.355C59.3142 180.232 60.2987 179.289 61.453 178.597C62.6074 177.904 63.9022 177.479 65.2424 177.353C66.5825 177.227 67.934 177.402 69.1973 177.867C70.4607 178.332 71.6039 179.074 72.5429 180.038L88.1353 198.178C92.4316 202.757 96.3841 207.647 99.9607 212.808L173.266 319.894Z" fill="url(#paint5_linear)"/>
<path d="M54.2925 286.722L47.0998 288.978L46.8316 288.734L45.9538 287.954L34.165 262.304L44.3202 261.121L54.2925 286.722Z" fill="#BCBEC0"/>
<path d="M39.5781 218.342L37.4812 242.725L15.7811 222.329L15.135 220.939L14.757 220.11C11.6132 208.585 9.41955 196.822 8.19824 184.939L39.5781 218.342Z" fill="white"/>
<path d="M44.3206 261.121L34.1654 262.304L15.769 222.329L37.4814 242.773L37.4204 243.407L44.3206 261.121Z" fill="#E6E7E8"/>
<path d="M63.2653 151.438L62.9605 152.011L54.9632 166.908L54.951 166.92L50.9035 175.576L45.4663 133.907L51.7691 140.441L51.8788 140.539L52.0617 140.722L62.802 150.999L63.2653 151.438Z" fill="white"/>
<path d="M67.9023 52.019C69.1766 38.4377 65.6828 27.0031 60.0988 26.4792C54.5147 25.9553 48.955 36.5404 47.6808 50.1217C46.4065 63.7031 49.9003 75.1376 55.4843 75.6615C61.0683 76.1854 66.6281 65.6003 67.9023 52.019Z" fill="white"/>
<path d="M106.997 288.638C107.892 279.099 105.438 271.067 101.516 270.699C97.5949 270.331 93.6903 277.766 92.7953 287.305C91.9003 296.844 94.3539 304.876 98.2754 305.244C102.197 305.611 106.102 298.177 106.997 288.638Z" fill="white"/>
<path d="M111.22 310.064C111.309 305.5 109.858 301.77 107.98 301.734C106.102 301.698 104.507 305.368 104.419 309.932C104.33 314.496 105.781 318.226 107.659 318.262C109.538 318.298 111.132 314.628 111.22 310.064Z" fill="white"/>
<path d="M111.881 299.352C112.742 299.161 113.063 297.306 112.597 295.209C112.131 293.112 111.056 291.568 110.195 291.759C109.334 291.95 109.013 293.805 109.479 295.902C109.944 297.998 111.02 299.543 111.881 299.352Z" fill="white"/>
<path d="M116.821 307.067C117.214 306.579 116.596 305.431 115.441 304.503C114.287 303.575 113.033 303.219 112.64 303.707C112.248 304.195 112.866 305.343 114.021 306.271C115.175 307.198 116.429 307.555 116.821 307.067Z" fill="white"/>
<path d="M79.7551 72.3005C84.7285 70.7439 88.0999 67.3723 87.2853 64.77C86.4708 62.1676 81.7788 61.3199 76.8054 62.8766C71.832 64.4332 68.4606 67.8048 69.2751 70.4071C70.0897 73.0095 74.7817 73.8572 79.7551 72.3005Z" fill="white"/>
<path d="M79.7312 51.1985C81.2674 50.0713 80.6399 46.6052 78.3297 43.4567C76.0195 40.3083 72.9013 38.6697 71.3651 39.797C69.8289 40.9242 70.4563 44.3903 72.7665 47.5388C75.0768 50.6872 78.1949 52.3257 79.7312 51.1985Z" fill="white"/>
<path d="M157.039 195.899C155.491 187.865 148.506 186.146 145.068 190.73C141.63 195.313 142.629 205.712 146.201 211.735C149.591 217.538 156.6 221.39 161.379 217.709C153.711 208.468 158.966 205.932 157.039 195.899Z" fill="white"/>
<path d="M145.336 183C145.605 182.375 145.699 181.688 145.608 181.013C145.518 180.339 145.246 179.701 144.822 179.168C144.398 178.635 143.838 178.228 143.201 177.988C142.564 177.748 141.873 177.686 141.203 177.807C138.594 178.343 136.01 180.757 136.717 185.183C137.18 188.084 137.461 192.839 139.96 195.07C138.704 189.767 143.788 186.926 145.336 183Z" fill="white"/>
<path d="M124.282 180.538C123.815 180.248 123.436 179.837 123.185 179.349C122.934 178.861 122.819 178.314 122.854 177.766C122.889 177.218 123.072 176.69 123.384 176.238C123.695 175.785 124.123 175.426 124.623 175.198C126.598 174.357 129.426 174.771 130.987 178.027C132.011 180.148 134.022 183.439 133.425 186.06C131.791 181.976 127.098 182.44 124.282 180.538Z" fill="white"/>
<path d="M249.362 282.821L235.708 353.359L217.324 322.064L249.362 282.821Z" fill="#E6E7E8" stroke="#E6E7E8" stroke-linecap="square" stroke-linejoin="bevel"/>
<path d="M194.893 302.339L212.363 329.635L201.988 369L181.519 340.583L194.893 302.339Z" fill="url(#paint6_linear)" stroke="#E6E7E8" stroke-linecap="square" stroke-linejoin="bevel"/>
<path d="M210.18 325.441L198.428 357.54L201.988 369L235.708 353.359L225.809 322.32L210.18 325.441Z" fill="url(#paint7_linear)" stroke="#E6E7E8" stroke-linecap="square" stroke-linejoin="bevel"/>
<path d="M194.893 302.339L249.362 282.821L227.601 326.746L209.29 328.83L194.893 302.339Z" fill="url(#paint8_linear)" stroke="#E6E7E8" stroke-linecap="square" stroke-linejoin="bevel"/>
<defs>
<linearGradient id="paint0_linear" x1="30.1339" y1="93.0058" x2="30.1339" y2="218.342" gradientUnits="userSpaceOnUse">
<stop stop-color="#FB541C"/>
<stop offset="0.921875" stop-color="#F21E5F"/>
</linearGradient>
<linearGradient id="paint1_linear" x1="123.971" y1="55.311" x2="123.971" y2="133.115" gradientUnits="userSpaceOnUse">
<stop stop-color="#FB541C"/>
<stop offset="0.921875" stop-color="#F21E5F"/>
</linearGradient>
<linearGradient id="paint2_linear" x1="52.4292" y1="1.40198" x2="52.4292" y2="144.243" gradientUnits="userSpaceOnUse">
<stop stop-color="#FB541C"/>
<stop offset="0.921875" stop-color="#F21E5F"/>
</linearGradient>
<linearGradient id="paint3_linear" x1="83.8808" y1="129.872" x2="83.8808" y2="203.75" gradientUnits="userSpaceOnUse">
<stop stop-color="#FB541C"/>
<stop offset="0.921875" stop-color="#F21E5F"/>
</linearGradient>
<linearGradient id="paint4_linear" x1="134.256" y1="133.296" x2="134.256" y2="300.426" gradientUnits="userSpaceOnUse">
<stop stop-color="#FB541C"/>
<stop offset="0.921875" stop-color="#F21E5F"/>
</linearGradient>
<linearGradient id="paint5_linear" x1="107.051" y1="177.313" x2="107.051" y2="352.274" gradientUnits="userSpaceOnUse">
<stop stop-color="#FB541C"/>
<stop offset="0.921875" stop-color="#F21E5F"/>
</linearGradient>
<linearGradient id="paint6_linear" x1="196.941" y1="302.339" x2="196.941" y2="369" gradientUnits="userSpaceOnUse">
<stop stop-color="#FB541C"/>
<stop offset="0.921875" stop-color="#F21E5F"/>
</linearGradient>
<linearGradient id="paint7_linear" x1="217.068" y1="322.32" x2="217.068" y2="369" gradientUnits="userSpaceOnUse">
<stop stop-color="#FB541C"/>
<stop offset="0.921875" stop-color="#F21E5F"/>
</linearGradient>
<linearGradient id="paint8_linear" x1="222.127" y1="282.821" x2="222.127" y2="328.83" gradientUnits="userSpaceOnUse">
<stop stop-color="#FB541C"/>
<stop offset="0.921875" stop-color="#F21E5F"/>
</linearGradient>
</defs>
</svg>
