<svg width="360" height="229" viewBox="0 0 360 229" fill="none" xmlns="http://www.w3.org/2000/svg">
<rect x="104.584" y="69.6052" width="255.039" height="159.175" rx="22" transform="rotate(-0.135973 104.584 69.6052)" fill="#F0F0F0"/>
<rect x="49.0234" y="33.442" width="296.511" height="181.623" rx="22" transform="rotate(-0.135973 49.0234 33.442)" fill="#E2E0E0"/>
<rect x="2.49644" y="3.28042" width="330.354" height="203.516" rx="23.5" transform="rotate(-0.135973 2.49644 3.28042)" fill="white" stroke="black" stroke-width="3"/>
<mask id="path-4-inside-1" fill="white">
<path d="M168.291 95.2226L165.796 94.3129L155.867 85.392L156.953 85.0486L156.957 85.0541L156.974 85.0965L168.291 95.2226Z"/>
</mask>
<path d="M168.291 95.2226L165.796 94.3129L155.867 85.392L156.953 85.0486L156.957 85.0541L156.974 85.0965L168.291 95.2226Z" fill="#D1D3D4"/>
<path d="M168.291 95.2226L167.948 96.1621L168.958 94.4774L168.291 95.2226ZM165.796 94.3129L165.128 95.0568L165.272 95.1861L165.454 95.2524L165.796 94.3129ZM155.867 85.392L155.566 84.4386L153.897 84.9662L155.199 86.1359L155.867 85.392ZM156.953 85.0486L157.784 84.4919L157.367 83.8691L156.652 84.0951L156.953 85.0486ZM156.957 85.0541L157.887 84.6875L157.848 84.5871L157.788 84.4974L156.957 85.0541ZM156.974 85.0965L156.043 85.4631L156.13 85.6836L156.307 85.8417L156.974 85.0965ZM168.634 94.2831L166.139 93.3734L165.454 95.2524L167.948 96.1621L168.634 94.2831ZM166.465 93.5691L156.535 84.6482L155.199 86.1359L165.128 95.0568L166.465 93.5691ZM156.168 86.3455L157.255 86.0021L156.652 84.0951L155.566 84.4386L156.168 86.3455ZM156.122 85.6053L156.126 85.6108L157.788 84.4974L157.784 84.4919L156.122 85.6053ZM156.026 85.4208L156.043 85.4631L157.904 84.7299L157.887 84.6875L156.026 85.4208ZM156.307 85.8417L167.624 95.9679L168.958 94.4774L157.64 84.3512L156.307 85.8417Z" fill="#E6E7E8" mask="url(#path-4-inside-1)"/>
<path d="M150.433 69.4659C150.052 65.3164 149.918 61.1482 150.033 56.9835L155.091 62.1907L155.885 68.1706L154.321 73.5795L150.433 69.4659Z" fill="url(#paint0_linear)" stroke="#E6E7E8"/>
<path d="M164.885 59.6208L164.296 51.7494C166.349 54.5663 168.351 57.5937 169.74 60.259L169.74 60.259L169.744 60.2678L169.924 60.5965C170.032 60.8173 170.157 61.0287 170.272 61.2221L166.491 60.8913L166.488 60.891L164.97 60.7505L164.885 59.6213L164.885 59.6208Z" fill="url(#paint1_linear)" stroke="#E6E7E8"/>
<path d="M149.871 54.7022L149.871 54.7022L149.871 54.7022ZM162.752 51.1657L162.253 51.2023L162.84 59.2135L162.84 59.2139L162.84 59.2143L162.84 59.2147L162.84 59.2151L162.84 59.2155L162.84 59.2159L162.84 59.2163L162.84 59.2167L162.84 59.2171L162.84 59.2175L162.84 59.2179L162.84 59.2183L162.84 59.2187L162.84 59.2191L162.84 59.2195L162.84 59.2199L162.84 59.2203L162.84 59.2207L162.84 59.2211L162.84 59.2215L162.84 59.2219L162.84 59.2223L162.84 59.2227L162.84 59.2231L162.84 59.2235L162.84 59.2239L162.84 59.2243L162.84 59.2247L162.84 59.2252L162.84 59.2256L162.84 59.226L162.84 59.2264L162.84 59.2268L162.84 59.2272L162.84 59.2276L162.84 59.228L162.84 59.2284L162.84 59.2288L162.84 59.2292L162.84 59.2296L162.84 59.23L162.84 59.2304L162.84 59.2308L162.84 59.2312L162.84 59.2316L162.84 59.232L162.84 59.2324L162.84 59.2328L162.84 59.2332L162.84 59.2336L162.84 59.234L162.84 59.2344L162.84 59.2348L162.84 59.2352L162.84 59.2356L162.84 59.236L162.84 59.2364L162.84 59.2368L162.84 59.2372L162.84 59.2376L162.84 59.238L162.84 59.2384L162.84 59.2388L162.84 59.2392L162.84 59.2396L162.84 59.24L162.84 59.2404L162.84 59.2408L162.84 59.2412L162.84 59.2416L162.84 59.242L162.84 59.2424L162.84 59.2428L162.84 59.2432L162.84 59.2436L162.84 59.244L162.84 59.2444L162.84 59.2448L162.84 59.2452L162.84 59.2456L162.84 59.246L162.84 59.2464L162.84 59.2468L162.84 59.2472L162.84 59.2476L162.84 59.248L162.84 59.2484L162.84 59.2488L162.84 59.2492L162.84 59.2496L162.84 59.25L162.84 59.2505L162.84 59.2509L162.84 59.2513L162.84 59.2517L162.84 59.2521L162.84 59.2525L162.84 59.2529L162.84 59.2533L162.84 59.2537L162.84 59.2541L162.84 59.2545L162.84 59.2549L162.84 59.2553L162.84 59.2557L162.84 59.2561L162.84 59.2565L162.84 59.2569L162.84 59.2573L162.84 59.2577L162.84 59.2581L162.84 59.2585L162.84 59.2589L162.84 59.2593L162.84 59.2597L162.84 59.2601L162.84 59.2605L162.84 59.2609L162.84 59.2613L162.84 59.2617L162.84 59.2621L162.84 59.2625L162.84 59.2629L162.84 59.2633L162.84 59.2637L162.84 59.2641L162.84 59.2645L162.84 59.2649L162.84 59.2653L162.84 59.2657L162.84 59.2661L162.84 59.2665L162.84 59.2669L162.84 59.2673L162.84 59.2677L162.84 59.2681L162.84 59.2685L162.84 59.2689L162.84 59.2693L162.84 59.2697L162.84 59.2701L162.84 59.2705L162.84 59.2709L162.84 59.2713L162.84 59.2717L162.84 59.2721L162.84 59.2725L162.84 59.2729L162.84 59.2733L162.84 59.2737L162.84 59.2741L162.84 59.2745L162.84 59.2749L162.84 59.2753L162.84 59.2757L162.84 59.2761L162.84 59.2765L162.84 59.2769L162.84 59.2773L162.84 59.2777L162.84 59.2781L162.84 59.2785L162.84 59.2789L162.84 59.2793L162.84 59.2797L162.84 59.2801L162.84 59.2805L162.84 59.2809L162.84 59.2813L162.84 59.2817L162.84 59.2821L162.84 59.2825L162.84 59.2829L162.84 59.2833L162.84 59.2837L162.84 59.2841L162.84 59.2845L162.84 59.2849L162.84 59.2853L162.84 59.2857L162.84 59.2861L162.84 59.2865L162.84 59.2869L162.84 59.2873L162.84 59.2877L162.84 59.2881L162.84 59.2885L162.84 59.2889L162.84 59.2893L162.84 59.2897L162.84 59.2901L162.84 59.2905L162.84 59.2909L162.84 59.2913L162.84 59.2917L162.84 59.2921L162.84 59.2925L162.84 59.2929L162.84 59.2933L162.84 59.2937L162.84 59.2941L162.84 59.2945L162.84 59.2949L162.84 59.2953L162.84 59.2957L162.84 59.2961L162.84 59.2965L162.84 59.2969L162.84 59.2973L162.84 59.2977L162.84 59.2981L162.84 59.2985L162.84 59.2989L162.84 59.2993L162.84 59.2997L162.84 59.3001L162.84 59.3005L162.84 59.3009L162.84 59.3013L162.84 59.3017L162.84 59.3021L162.84 59.3025L162.84 59.3029L162.84 59.3033L162.84 59.3037L162.84 59.3041L162.84 59.3045L162.84 59.3049L162.84 59.3053L162.84 59.3057L162.84 59.3061L162.84 59.3065L162.84 59.3069L162.84 59.3073L162.84 59.3077L162.84 59.3081L162.84 59.3085L162.84 59.3089L162.84 59.3093L162.84 59.3097L162.84 59.3101L162.84 59.3105L162.84 59.3109L162.84 59.3113L162.84 59.3117L162.84 59.3121L162.84 59.3125L162.84 59.3129L162.84 59.3132L162.84 59.3136L162.84 59.314L162.84 59.3144L162.84 59.3148L162.84 59.3152L162.84 59.3156L162.84 59.316L162.84 59.3164L162.84 59.3168L162.84 59.3172L162.84 59.3176L162.84 59.318L162.84 59.3184L162.84 59.3188L162.84 59.3192L162.84 59.3196L162.84 59.32L162.84 59.3204L162.84 59.3208L162.84 59.3212L162.84 59.3216L162.84 59.322L162.84 59.3224L162.84 59.3228L162.84 59.3232L162.84 59.3236L162.84 59.324L162.84 59.3244L162.84 59.3248L162.84 59.3252L162.84 59.3256L162.84 59.326L162.84 59.3264L162.84 59.3268L162.84 59.3272L162.84 59.3276L162.84 59.328L162.84 59.3284L162.84 59.3288L162.84 59.3292L162.84 59.3296L162.84 59.33L162.84 59.3304L162.84 59.3308L162.84 59.3312L162.84 59.3316L162.84 59.332L162.84 59.3324L162.84 59.3328L162.84 59.3332L162.84 59.3336L162.84 59.334L162.84 59.3344L162.84 59.3348L162.84 59.3352L162.84 59.3356L162.84 59.336L162.84 59.3364L162.84 59.3368L162.84 59.3372L162.84 59.3376L162.84 59.338L162.84 59.3384L162.84 59.3388L162.84 59.3391L162.84 59.3395L162.84 59.3399L162.84 59.3403L162.84 59.3407L162.84 59.3411L162.84 59.3415L162.84 59.3419L162.84 59.3423L162.84 59.3427L162.84 59.3431L162.84 59.3435L162.84 59.3439L162.84 59.3443L162.84 59.3447L162.84 59.3451L162.84 59.3455L162.84 59.3459L162.84 59.3463L162.84 59.3467L162.84 59.3471L162.84 59.3475L162.84 59.3479L162.84 59.3483L162.84 59.3487L162.84 59.3491L162.84 59.3495L162.84 59.3499L162.84 59.3503L162.84 59.3507L162.84 59.3511L162.84 59.3515L162.84 59.3519L162.84 59.3523L162.84 59.3527L162.84 59.3531L162.84 59.3535L162.84 59.3539L162.84 59.3543L162.84 59.3547L162.84 59.3551L162.84 59.3555L162.84 59.3559L162.84 59.3562L162.84 59.3566L162.84 59.357L162.84 59.3574L162.84 59.3578L162.84 59.3582L162.84 59.3586L162.84 59.359L162.84 59.3594L162.84 59.3598L162.84 59.3602L162.84 59.3606L162.84 59.361L162.84 59.3614L162.84 59.3618L162.84 59.3622L162.84 59.3626L162.84 59.363L162.84 59.3634L162.84 59.3638L162.84 59.3642L162.84 59.3646L162.84 59.365L162.84 59.3654L162.84 59.3658L162.84 59.3662L162.84 59.3666L162.84 59.367L162.84 59.3674L162.84 59.3678L162.84 59.3682L162.84 59.3686L162.84 59.369L162.84 59.3694L162.84 59.3698L162.84 59.3701L162.84 59.3705L162.84 59.3709L162.84 59.3713L162.84 59.3717L162.84 59.3721L162.84 59.3725L162.84 59.3729L162.84 59.3733L162.84 59.3737L162.84 59.3741L162.84 59.3745L162.84 59.3749L162.84 59.3753L162.84 59.3757L162.84 59.3761L162.84 59.3765L162.84 59.3769L162.84 59.3773L162.84 59.3777L162.84 59.3781L162.84 59.3785L162.84 59.3789L162.84 59.3793L162.84 59.3797L162.84 59.3801L162.84 59.3805L162.84 59.3809L162.84 59.3813L162.84 59.3817L162.84 59.382L162.84 59.3824L162.84 59.3828L162.84 59.3832L162.84 59.3836L162.84 59.384L162.84 59.3844L162.84 59.3848L162.84 59.3852L162.84 59.3856L162.84 59.386L162.84 59.3864L162.84 59.3868L162.84 59.3872L162.84 59.3876L162.84 59.388L162.84 59.3884L162.84 59.3888L162.84 59.3892L162.84 59.3896L162.84 59.39L162.84 59.3904L162.84 59.3908L162.84 59.3912L162.84 59.3916L162.84 59.392L162.84 59.3924L162.84 59.3927L162.84 59.3931L162.84 59.3935L162.84 59.3939L162.84 59.3943L162.84 59.3947L162.84 59.3951L162.84 59.3955L162.84 59.3959L162.84 59.3963L162.84 59.3967L162.84 59.3971L162.84 59.3975L162.84 59.3979L162.84 59.3983L162.84 59.3987L162.84 59.3991L162.84 59.3995L162.84 59.3999L162.84 59.4003L162.84 59.4007L162.84 59.4195L162.842 59.4382C162.867 59.7586 162.8 60.0796 162.65 60.3636C162.499 60.6476 162.271 60.883 161.992 61.0423L161.992 61.0423L161.985 61.0462L158.773 62.9459L158.773 62.9461C158.683 62.9994 158.578 63.022 158.474 63.0105C158.373 62.9994 158.279 62.9567 158.203 62.8886L150.388 54.8363L150.388 54.8362L150.38 54.8283C150.374 54.8224 150.369 54.8151 150.367 54.8071C150.364 54.7991 150.363 54.7906 150.365 54.7823L150.365 54.779C150.402 54.5429 150.442 54.329 150.486 54.1294L150.487 54.1288C151.151 51.1436 152.578 48.307 153.917 46.141C154.954 44.4628 155.922 43.2115 156.413 42.6251C156.5 42.7133 156.601 42.8216 156.715 42.9504C157.037 43.3129 157.445 43.8135 157.933 44.4318C158.518 45.1723 159.206 46.0677 159.982 47.0784C160.501 47.7533 161.059 48.4796 161.652 49.2456C161.682 49.2914 161.711 49.3348 161.739 49.3769C161.793 49.458 161.844 49.5343 161.894 49.6135C162.13 50.0965 162.252 50.6272 162.252 51.165L162.752 51.1657Z" fill="url(#paint2_linear)" stroke="#E6E7E8"/>
<path d="M160.586 67.3319L158.974 64.7915L160.571 63.952L160.571 63.9519L163.885 62.2076L162.927 71.0215L160.586 67.3319L160.586 67.3319Z" fill="url(#paint3_linear)" stroke="#E6E7E8"/>
<path d="M171.739 65.9593L171.739 65.9598C173.418 72.8293 173.637 82.0122 173.726 86.1141L164.577 72.5029C164.349 72.1505 164.261 71.726 164.33 71.3121C164.33 71.312 164.33 71.3118 164.33 71.3116L165.783 62.6872L165.783 62.6872L165.784 62.6848C165.79 62.6481 165.808 62.6145 165.836 62.5899C165.864 62.5652 165.9 62.551 165.937 62.5495L165.944 62.5493L165.951 62.5488L169.052 62.337C169.053 62.337 169.053 62.3369 169.053 62.3369C169.317 62.3194 169.581 62.3764 169.814 62.5014C170.047 62.6261 170.24 62.8136 170.372 63.0426C170.428 63.1425 170.485 63.2428 170.542 63.3435C171.026 64.1975 171.525 65.0764 171.739 65.9593Z" fill="url(#paint4_linear)" stroke="#E6E7E8"/>
<mask id="path-11-inside-2" fill="white">
<path d="M171.115 61.6931C171.115 61.6931 171.115 61.6784 171.115 61.6766L171.083 61.6177L164.556 60.9847L163.75 50.3251L163.738 50.1777L163.738 50.1519L163.722 50.1299L163.67 50.0618C163.369 49.6658 163.07 49.2754 162.772 48.8904C159.859 45.1353 156.985 41.9254 156.373 41.7371L156.312 41.7207L156.274 41.7576C156.213 41.8149 150.491 47.4457 149.055 53.9967C148.999 54.2566 148.948 54.5312 148.9 54.8372C148.901 54.8961 148.884 54.9588 148.875 55.0215L148.875 55.0675C148.332 59.1219 149.054 65.1998 149.766 69.5866C150.275 72.7173 150.778 75.019 150.781 75.0411L150.781 75.0503L155.544 85.3486L165.686 94.4606L168.66 95.5589L168.708 95.603L168.85 95.4829L175.119 90.1253L175.149 90.0976L175.148 90.0037L175.148 89.7789C175.111 88.9279 174.39 69.2241 171.115 61.6931ZM149.871 54.6948C149.909 54.4497 149.951 54.2249 149.998 54.0129C151.36 47.8987 155.831 42.4588 156.359 41.9325C156.966 42.2332 159.097 45.1297 162.059 48.9547C162.15 49.0927 162.244 49.2306 162.331 49.3686C162.608 49.927 162.752 50.5422 162.751 51.1657L163.34 59.195C163.34 59.2638 163.34 59.3319 163.34 59.3995C163.372 59.8144 163.286 60.2299 163.091 60.5976C162.897 60.9654 162.601 61.2702 162.24 61.4765L159.028 63.3762C158.844 63.4849 158.631 63.5309 158.419 63.5075C158.207 63.4841 158.009 63.3924 157.854 63.2464L150.029 55.1845C149.965 55.1218 149.917 55.0445 149.889 54.9592C149.862 54.8739 149.856 54.7831 149.871 54.6948V54.6948ZM164.331 61.5103L163.173 72.169L158.391 64.6379L164.331 61.5103ZM165.796 94.313L155.867 85.3847L155.826 85.3479L155.693 85.2304L153.903 81.3657L151.11 75.3314L151.012 75.1216L150.955 74.9965C150.475 73.256 150.14 71.4791 149.951 69.6838C149.951 69.6414 149.951 69.6009 149.939 69.5604C149.516 64.9838 149.393 60.3844 149.571 55.7917L156.519 62.9437L156.536 62.9584L156.564 62.986L158.148 64.62L157.011 66.9422L156.395 68.202L154.791 73.7512L154.71 74.7204L154.402 78.4058L154.393 78.5016L155.442 81.176L156.959 85.0413L156.975 85.0836L168.291 95.2227L165.796 94.313ZM169.316 94.7781C169.199 94.8784 169.048 94.9312 168.894 94.9261C168.74 94.921 168.593 94.8584 168.483 94.7506L158.903 85.3112C158.391 84.8059 157.955 84.2292 157.609 83.599L155.285 79.3875C154.993 78.8618 154.864 78.2614 154.913 77.6621L155.162 74.8096C155.213 74.196 155.365 73.595 155.611 73.0307L156.828 70.2533L157.562 69.1241C157.674 68.9541 157.822 68.8113 157.996 68.7063C158.17 68.6012 158.366 68.5365 158.568 68.5169C158.771 68.4974 158.975 68.5234 159.166 68.5932C159.357 68.663 159.53 68.7747 159.673 68.9201L162.036 71.6558C162.686 72.3463 163.285 73.0838 163.828 73.8624L174.951 90.0189L169.316 94.7781ZM173.682 86.9544L164.159 72.7783C163.862 72.3204 163.747 71.768 163.836 71.2297L165.29 62.6042C165.314 62.4537 165.39 62.3163 165.504 62.2153C165.619 62.1144 165.764 62.0559 165.917 62.05L169.019 61.8381C169.376 61.8143 169.733 61.8914 170.049 62.0607C170.366 62.23 170.628 62.4846 170.806 62.7956C171.326 63.7063 171.968 64.7623 172.228 65.8339C174.018 73.1823 174.158 83.1158 174.24 86.7781C174.241 86.8436 174.22 86.9076 174.182 86.9607C174.143 87.0137 174.089 87.053 174.026 87.0728C173.964 87.0925 173.897 87.0917 173.835 87.0704C173.773 87.0491 173.719 87.0084 173.682 86.9544V86.9544Z"/>
</mask>
<path d="M171.115 61.6931C171.115 61.6931 171.115 61.6784 171.115 61.6766L171.083 61.6177L164.556 60.9847L163.75 50.3251L163.738 50.1777L163.738 50.1519L163.722 50.1299L163.67 50.0618C163.369 49.6658 163.07 49.2754 162.772 48.8904C159.859 45.1353 156.985 41.9254 156.373 41.7371L156.312 41.7207L156.274 41.7576C156.213 41.8149 150.491 47.4457 149.055 53.9967C148.999 54.2566 148.948 54.5312 148.9 54.8372C148.901 54.8961 148.884 54.9588 148.875 55.0215L148.875 55.0675C148.332 59.1219 149.054 65.1998 149.766 69.5866C150.275 72.7173 150.778 75.019 150.781 75.0411L150.781 75.0503L155.544 85.3486L165.686 94.4606L168.66 95.5589L168.708 95.603L168.85 95.4829L175.119 90.1253L175.149 90.0976L175.148 90.0037L175.148 89.7789C175.111 88.9279 174.39 69.2241 171.115 61.6931ZM149.871 54.6948C149.909 54.4497 149.951 54.2249 149.998 54.0129C151.36 47.8987 155.831 42.4588 156.359 41.9325C156.966 42.2332 159.097 45.1297 162.059 48.9547C162.15 49.0927 162.244 49.2306 162.331 49.3686C162.608 49.927 162.752 50.5422 162.751 51.1657L163.34 59.195C163.34 59.2638 163.34 59.3319 163.34 59.3995C163.372 59.8144 163.286 60.2299 163.091 60.5976C162.897 60.9654 162.601 61.2702 162.24 61.4765L159.028 63.3762C158.844 63.4849 158.631 63.5309 158.419 63.5075C158.207 63.4841 158.009 63.3924 157.854 63.2464L150.029 55.1845C149.965 55.1218 149.917 55.0445 149.889 54.9592C149.862 54.8739 149.856 54.7831 149.871 54.6948V54.6948ZM164.331 61.5103L163.173 72.169L158.391 64.6379L164.331 61.5103ZM165.796 94.313L155.867 85.3847L155.826 85.3479L155.693 85.2304L153.903 81.3657L151.11 75.3314L151.012 75.1216L150.955 74.9965C150.475 73.256 150.14 71.4791 149.951 69.6838C149.951 69.6414 149.951 69.6009 149.939 69.5604C149.516 64.9838 149.393 60.3844 149.571 55.7917L156.519 62.9437L156.536 62.9584L156.564 62.986L158.148 64.62L157.011 66.9422L156.395 68.202L154.791 73.7512L154.71 74.7204L154.402 78.4058L154.393 78.5016L155.442 81.176L156.959 85.0413L156.975 85.0836L168.291 95.2227L165.796 94.313ZM169.316 94.7781C169.199 94.8784 169.048 94.9312 168.894 94.9261C168.74 94.921 168.593 94.8584 168.483 94.7506L158.903 85.3112C158.391 84.8059 157.955 84.2292 157.609 83.599L155.285 79.3875C154.993 78.8618 154.864 78.2614 154.913 77.6621L155.162 74.8096C155.213 74.196 155.365 73.595 155.611 73.0307L156.828 70.2533L157.562 69.1241C157.674 68.9541 157.822 68.8113 157.996 68.7063C158.17 68.6012 158.366 68.5365 158.568 68.5169C158.771 68.4974 158.975 68.5234 159.166 68.5932C159.357 68.663 159.53 68.7747 159.673 68.9201L162.036 71.6558C162.686 72.3463 163.285 73.0838 163.828 73.8624L174.951 90.0189L169.316 94.7781ZM173.682 86.9544L164.159 72.7783C163.862 72.3204 163.747 71.768 163.836 71.2297L165.29 62.6042C165.314 62.4537 165.39 62.3163 165.504 62.2153C165.619 62.1144 165.764 62.0559 165.917 62.05L169.019 61.8381C169.376 61.8143 169.733 61.8914 170.049 62.0607C170.366 62.23 170.628 62.4846 170.806 62.7956C171.326 63.7063 171.968 64.7623 172.228 65.8339C174.018 73.1823 174.158 83.1158 174.24 86.7781C174.241 86.8436 174.22 86.9076 174.182 86.9607C174.143 87.0137 174.089 87.053 174.026 87.0728C173.964 87.0925 173.897 87.0917 173.835 87.0704C173.773 87.0491 173.719 87.0084 173.682 86.9544V86.9544Z" fill="#F1F2F2" stroke="#E6E7E8" stroke-width="2" mask="url(#path-11-inside-2)"/>
<path d="M168.994 94.3962L168.991 94.3982C168.969 94.4172 168.941 94.4273 168.911 94.4263C168.882 94.4253 168.855 94.4136 168.834 94.3933C168.834 94.3932 168.833 94.3931 168.833 94.393L159.255 84.9554C158.777 84.484 158.371 83.9461 158.048 83.3582L158.048 83.3574L155.724 79.1459L155.723 79.1448C155.479 78.7058 155.371 78.2045 155.411 77.7041C155.411 77.7036 155.412 77.7032 155.412 77.7027L155.661 74.8531L155.661 74.8531L155.661 74.851C155.707 74.2922 155.845 73.7449 156.07 73.231C156.07 73.2309 156.07 73.2308 156.07 73.2307L157.27 70.4914L157.981 69.3978C158.052 69.2907 158.145 69.2007 158.255 69.1344C158.365 69.0679 158.489 69.027 158.617 69.0146C158.745 69.0022 158.875 69.0187 158.995 69.0628C159.112 69.1054 159.218 69.1727 159.306 69.2599L161.658 71.9826L161.665 71.9909L161.672 71.9988C162.306 72.6709 162.889 73.3889 163.417 74.1469C163.418 74.1473 163.418 74.1477 163.418 74.1481L174.276 89.9294L168.994 94.3962Z" fill="url(#paint5_linear)" stroke="#E6E7E8"/>
<path d="M156.047 84.8108L154.646 81.7809L155.113 81.7255L156.293 84.7332L156.047 84.8108Z" fill="#BCBEC0" stroke="#E6E7E8"/>
<mask id="path-14-inside-3" fill="white">
<path d="M155.827 85.3553L155.867 85.392L155.764 85.4236L155.618 85.2913L153.805 81.377L150.928 75.1605L151.109 75.3295L151.109 75.3314L153.903 81.3657L155.694 85.2377L155.827 85.3553Z"/>
</mask>
<path d="M155.827 85.3553L156.498 84.6137L156.489 84.6063L155.827 85.3553ZM155.867 85.392L156.16 86.3482L157.845 85.8324L156.538 84.6505L155.867 85.392ZM155.764 85.4236L155.092 86.1643L155.513 86.5462L156.057 86.3798L155.764 85.4236ZM155.618 85.2913L154.711 85.7116L154.796 85.8957L154.947 86.032L155.618 85.2913ZM153.805 81.377L152.898 81.7971L152.898 81.7972L153.805 81.377ZM150.928 75.1605L151.61 74.4298L150.02 75.5805L150.928 75.1605ZM151.109 75.3295L152.109 75.3272L152.108 74.8943L151.791 74.5988L151.109 75.3295ZM151.109 75.3314L150.109 75.3337L150.109 75.5528L150.201 75.7516L151.109 75.3314ZM153.903 81.3657L154.811 80.9459L154.81 80.9455L153.903 81.3657ZM155.694 85.2377L154.786 85.6574L154.874 85.8477L155.031 85.9867L155.694 85.2377ZM155.156 86.0968L155.196 86.1336L156.538 84.6505L156.498 84.6137L155.156 86.0968ZM155.575 84.4358L155.471 84.4674L156.057 86.3798L156.16 86.3482L155.575 84.4358ZM156.436 84.6829L156.29 84.5506L154.947 86.032L155.092 86.1643L156.436 84.6829ZM156.526 84.871L154.713 80.9567L152.898 81.7972L154.711 85.7116L156.526 84.871ZM154.713 80.9569L151.835 74.7404L150.02 75.5805L152.898 81.7971L154.713 80.9569ZM150.245 75.8912L150.426 76.0602L151.791 74.5988L151.61 74.4298L150.245 75.8912ZM150.109 75.3319L150.109 75.3337L152.109 75.329L152.109 75.3272L150.109 75.3319ZM150.201 75.7516L152.996 81.7859L154.81 80.9455L152.016 74.9112L150.201 75.7516ZM152.995 81.7855L154.786 85.6574L156.601 84.8179L154.811 80.9459L152.995 81.7855ZM155.031 85.9867L155.164 86.1043L156.489 84.6063L156.356 84.4887L155.031 85.9867Z" fill="#E6E7E8" mask="url(#path-14-inside-3)"/>
<mask id="path-16-inside-4" fill="white">
<path d="M157.042 85.0207L156.954 85.0486L155.438 81.1833L154.388 78.5089L154.397 78.4131L154.482 78.4958L155.531 81.1739L157.042 85.0207Z"/>
</mask>
<path d="M157.042 85.0207L157.343 85.9745L158.364 85.6525L157.973 84.6552L157.042 85.0207ZM156.954 85.0486L156.023 85.4137L156.364 86.283L157.254 86.0023L156.954 85.0486ZM155.438 81.1833L156.368 80.8181L156.368 80.8181L155.438 81.1833ZM154.388 78.5089L153.393 78.4155L153.371 78.6525L153.457 78.8741L154.388 78.5089ZM154.397 78.4131L155.095 77.6966L153.597 76.238L153.402 78.3197L154.397 78.4131ZM154.482 78.4958L155.413 78.131L155.335 77.9299L155.18 77.7793L154.482 78.4958ZM155.531 81.1739L154.6 81.5386L154.601 81.5394L155.531 81.1739ZM156.742 84.0669L156.653 84.0948L157.254 86.0023L157.343 85.9745L156.742 84.0669ZM157.885 84.6834L156.368 80.8181L154.507 81.5485L156.023 85.4137L157.885 84.6834ZM156.368 80.8181L155.319 78.1437L153.457 78.8741L154.507 81.5485L156.368 80.8181ZM155.384 78.6022L155.393 78.5064L153.402 78.3197L153.393 78.4155L155.384 78.6022ZM153.7 79.1296L153.785 79.2123L155.18 77.7793L155.095 77.6966L153.7 79.1296ZM153.551 78.8605L154.6 81.5386L156.463 80.8091L155.413 78.131L153.551 78.8605ZM154.601 81.5394L156.111 85.3862L157.973 84.6552L156.462 80.8083L154.601 81.5394Z" fill="#E6E7E8" mask="url(#path-16-inside-4)"/>
<path d="M150.644 71.1459L154.188 74.9012L153.985 77.3355L151.523 75.0321L151.466 74.9114L151.426 74.8248C151.095 73.6142 150.833 72.3859 150.644 71.1459Z" fill="white" stroke="#E6E7E8"/>
<path d="M152.643 77.4543L153.899 78.6318L153.923 78.6916L154.736 80.7633L154.205 80.8264L152.643 77.4543Z" fill="#E6E7E8" stroke="#E6E7E8"/>
<mask id="path-20-inside-5" fill="white">
<path d="M151.111 75.3313L153.905 81.3657L153.807 81.377L150.926 75.1605L150.865 75.0261C150.865 75.0261 150.367 72.741 149.85 69.5753L149.951 69.6837C150.14 71.4784 150.475 73.2546 150.953 74.9946L151.011 75.1197L151.109 75.3295L151.111 75.3313Z"/>
</mask>
<path d="M151.111 75.3313L152.018 74.9111L151.943 74.7486L151.816 74.6224L151.111 75.3313ZM153.905 81.3657L154.02 82.3591L155.393 82.2003L154.812 80.9455L153.905 81.3657ZM153.807 81.377L152.9 81.7975L153.204 82.4534L153.922 82.3703L153.807 81.377ZM150.926 75.1605L150.016 75.5745L150.019 75.581L150.926 75.1605ZM150.865 75.0261L149.888 75.2388L149.91 75.343L149.955 75.4402L150.865 75.0261ZM149.85 69.5753L150.579 68.8916L148.332 66.4922L148.863 69.7367L149.85 69.5753ZM149.951 69.6837L150.946 69.5794L150.911 69.2453L150.681 69.0001L149.951 69.6837ZM150.953 74.9946L149.989 75.2597L150.01 75.3379L150.044 75.4115L150.953 74.9946ZM151.011 75.1197L150.102 75.5367L150.105 75.5435L151.011 75.1197ZM151.109 75.3295L150.203 75.7532L150.278 75.9136L150.403 76.0385L151.109 75.3295ZM150.203 75.7516L152.997 81.7859L154.812 80.9455L152.018 74.9111L150.203 75.7516ZM153.79 80.3723L153.692 80.3836L153.922 82.3703L154.02 82.3591L153.79 80.3723ZM154.715 80.9564L151.833 74.7399L150.019 75.581L152.9 81.7975L154.715 80.9564ZM151.836 74.7464L151.775 74.612L149.955 75.4402L150.016 75.5745L151.836 74.7464ZM150.865 75.0261C151.842 74.8135 151.842 74.8135 151.842 74.8135C151.842 74.8135 151.842 74.8135 151.842 74.8135C151.842 74.8135 151.842 74.8134 151.842 74.8133C151.842 74.8131 151.842 74.8128 151.842 74.8123C151.841 74.8114 151.841 74.8099 151.841 74.8079C151.84 74.8039 151.838 74.7976 151.837 74.7892C151.833 74.7725 151.828 74.7472 151.82 74.7136C151.806 74.6465 151.785 74.5466 151.758 74.4164C151.704 74.1561 151.627 73.7754 151.533 73.2959C151.345 72.3369 151.093 70.9845 150.836 69.4138L148.863 69.7367C149.124 71.3317 149.379 72.7048 149.57 73.6797C149.665 74.1673 149.744 74.5556 149.8 74.8228C149.828 74.9563 149.849 75.0596 149.864 75.1298C149.872 75.165 149.878 75.1918 149.881 75.2101C149.883 75.2192 149.885 75.2262 149.886 75.231C149.886 75.2334 149.887 75.2353 149.887 75.2365C149.887 75.2372 149.887 75.2377 149.887 75.2381C149.888 75.2383 149.888 75.2384 149.888 75.2385C149.888 75.2386 149.888 75.2386 149.888 75.2387C149.888 75.2387 149.888 75.2388 150.865 75.0261ZM149.12 70.2589L149.221 70.3673L150.681 69.0001L150.579 68.8916L149.12 70.2589ZM148.957 69.7881C149.151 71.6371 149.496 73.4671 149.989 75.2597L151.917 74.7294C151.453 73.0422 151.128 71.3197 150.946 69.5794L148.957 69.7881ZM150.044 75.4115L150.102 75.5367L151.919 74.7028L151.862 74.5776L150.044 75.4115ZM150.105 75.5435L150.203 75.7532L152.014 74.9058L151.916 74.696L150.105 75.5435ZM150.403 76.0385L150.405 76.0403L151.816 74.6224L151.814 74.6205L150.403 76.0385Z" fill="#E6E7E8" mask="url(#path-20-inside-5)"/>
<mask id="path-22-inside-6" fill="white">
<path d="M154.482 78.4959L155.531 81.1739L155.437 81.1834L154.388 78.509L154.397 78.4132L154.705 74.7204L154.788 74.8105L154.482 78.4959Z"/>
</mask>
<path d="M154.482 78.4959L153.485 78.413L153.466 78.6444L153.551 78.8606L154.482 78.4959ZM155.531 81.1739L155.631 82.1689L156.943 82.0371L156.462 80.8092L155.531 81.1739ZM155.437 81.1834L154.506 81.5486L154.783 82.2541L155.537 82.1784L155.437 81.1834ZM154.388 78.509L153.392 78.4156L153.37 78.6526L153.457 78.8742L154.388 78.509ZM154.397 78.4132L155.393 78.5065L155.393 78.4963L154.397 78.4132ZM154.705 74.7204L155.44 74.0423L153.898 72.3708L153.708 74.6373L154.705 74.7204ZM154.788 74.8105L155.785 74.8933L155.821 74.4553L155.523 74.1323L154.788 74.8105ZM153.551 78.8606L154.6 81.5387L156.462 80.8092L155.413 78.1311L153.551 78.8606ZM155.431 80.1789L155.337 80.1884L155.537 82.1784L155.631 82.1689L155.431 80.1789ZM156.368 80.8182L155.319 78.1438L153.457 78.8742L154.506 81.5486L156.368 80.8182ZM155.384 78.6023L155.393 78.5065L153.401 78.3198L153.392 78.4156L155.384 78.6023ZM155.393 78.4963L155.702 74.8036L153.708 74.6373L153.4 78.33L155.393 78.4963ZM153.97 75.3986L154.053 75.4887L155.523 74.1323L155.44 74.0423L153.97 75.3986ZM153.792 74.7277L153.485 78.413L155.478 78.5787L155.785 74.8933L153.792 74.7277Z" fill="#E6E7E8" mask="url(#path-22-inside-6)"/>
<path d="M156.675 66.5125L156.259 63.386L157.641 64.702L156.675 66.5125Z" fill="white" stroke="#E6E7E8"/>
<path d="M157.692 46.2167C157.727 46.2199 157.806 46.2425 157.917 46.3797C158.03 46.5186 158.145 46.7415 158.241 47.0535C158.433 47.6752 158.518 48.5522 158.428 49.53C158.339 50.5079 158.096 51.3549 157.795 51.9315C157.644 52.2209 157.49 52.4192 157.354 52.5354C157.22 52.6503 157.139 52.6581 157.104 52.6549C157.068 52.6517 156.99 52.6292 156.879 52.4919C156.766 52.353 156.651 52.1302 156.555 51.8181C156.363 51.1965 156.278 50.3195 156.368 49.3416C156.457 48.3638 156.7 47.5167 157.001 46.9401C157.152 46.6507 157.306 46.4525 157.441 46.3362C157.576 46.2214 157.657 46.2135 157.692 46.2167Z" fill="white" stroke="#E6E7E8"/>
<path d="M164.027 83.1057C164.027 83.1056 164.028 83.1059 164.03 83.1067C164.028 83.1062 164.027 83.1058 164.027 83.1057ZM163.973 83.157C164.005 83.1301 164.026 83.1177 164.038 83.1121C164.05 83.1198 164.069 83.1359 164.095 83.1681C164.158 83.2461 164.231 83.3835 164.296 83.5917C164.423 84.0056 164.482 84.6014 164.421 85.2737C164.36 85.9461 164.193 86.5212 163.993 86.9051C163.892 87.0982 163.794 87.2199 163.718 87.2852C163.687 87.3121 163.665 87.3246 163.653 87.3301C163.642 87.3224 163.623 87.3063 163.597 87.2741C163.534 87.1961 163.46 87.0587 163.396 86.8506C163.268 86.4367 163.209 85.8409 163.27 85.1685C163.332 84.4962 163.498 83.921 163.699 83.5371C163.8 83.344 163.897 83.2223 163.973 83.157ZM163.64 87.3343C163.64 87.3342 163.641 87.334 163.643 87.3338C163.641 87.3343 163.64 87.3344 163.64 87.3343ZM163.664 87.3365C163.664 87.3366 163.663 87.3363 163.662 87.3355C163.663 87.336 163.664 87.3364 163.664 87.3365ZM164.048 83.1084C164.05 83.1079 164.051 83.1078 164.051 83.1079C164.051 83.108 164.05 83.1083 164.048 83.1084Z" fill="white" stroke="#E6E7E8"/>
<path d="M165.037 88.5466C165.039 88.4526 165.045 88.3639 165.056 88.2817C165.063 88.3642 165.067 88.4531 165.065 88.5471C165.064 88.6411 165.057 88.7299 165.047 88.8121C165.039 88.7296 165.036 88.6407 165.037 88.5466Z" fill="white" stroke="#E6E7E8"/>
<mask id="path-28-inside-7" fill="white">
<path d="M165.661 86.9365C165.791 86.9073 165.839 86.6269 165.768 86.3102C165.697 85.9935 165.534 85.7604 165.403 85.7897C165.273 85.8189 165.226 86.0993 165.297 86.4159C165.368 86.7326 165.531 86.9657 165.661 86.9365Z"/>
</mask>
<path d="M165.661 86.9365C165.791 86.9073 165.839 86.6269 165.768 86.3102C165.697 85.9935 165.534 85.7604 165.403 85.7897C165.273 85.8189 165.226 86.0993 165.297 86.4159C165.368 86.7326 165.531 86.9657 165.661 86.9365Z" fill="white"/>
<path d="M164.792 86.5293C164.806 86.5926 164.796 86.6071 164.804 86.5632C164.807 86.5438 164.823 86.4575 164.89 86.3484C164.959 86.2356 165.129 86.031 165.442 85.9608L165.88 87.9122C166.258 87.8274 166.483 87.5768 166.595 87.3933C166.705 87.2135 166.753 87.0319 166.776 86.8991C166.822 86.6285 166.8 86.3445 166.743 86.0911L164.792 86.5293ZM165.442 85.9608C165.754 85.8906 165.996 86.0027 166.107 86.0751C166.214 86.1452 166.265 86.2165 166.276 86.2326C166.302 86.2691 166.287 86.2601 166.272 86.1968L164.321 86.635C164.378 86.8885 164.48 87.1543 164.637 87.3792C164.715 87.4896 164.835 87.6334 165.012 87.7489C165.192 87.8667 165.502 87.997 165.88 87.9122L165.442 85.9608ZM166.272 86.1968C166.258 86.1336 166.268 86.119 166.26 86.163C166.257 86.1824 166.241 86.2686 166.175 86.3778C166.105 86.4906 165.935 86.6952 165.623 86.7654L165.184 84.8139C164.807 84.8987 164.582 85.1494 164.469 85.3328C164.359 85.5126 164.311 85.6943 164.289 85.827C164.243 86.0976 164.264 86.3816 164.321 86.635L166.272 86.1968ZM165.623 86.7654C165.31 86.8355 165.069 86.7234 164.958 86.651C164.851 86.5809 164.8 86.5097 164.788 86.4935C164.763 86.457 164.778 86.466 164.792 86.5293L166.743 86.0911C166.686 85.8377 166.584 85.5718 166.427 85.3469C166.35 85.2365 166.229 85.0927 166.053 84.9773C165.873 84.8595 165.562 84.7292 165.184 84.8139L165.623 86.7654Z" fill="#E6E7E8" mask="url(#path-28-inside-7)"/>
<path d="M166.246 87.7522C166.233 87.8007 166.209 87.8543 166.167 87.9067C166.126 87.959 166.078 87.9939 166.034 88.017C166.018 88.0058 166.002 87.9939 165.986 87.9813C165.971 87.9687 165.956 87.9558 165.941 87.9428C165.954 87.8943 165.978 87.8407 166.02 87.7884C166.061 87.736 166.108 87.7011 166.153 87.678C166.169 87.6892 166.185 87.7011 166.2 87.7137C166.216 87.7263 166.231 87.7392 166.246 87.7522Z" fill="white" stroke="#E6E7E8"/>
<path d="M161.377 51.6124C161.377 51.6124 161.377 51.6131 161.377 51.6145C161.377 51.6131 161.377 51.6124 161.377 51.6124ZM161.214 51.6103C161.288 51.6235 161.334 51.6397 161.361 51.6528C161.346 51.6792 161.318 51.7187 161.265 51.7717C161.128 51.9101 160.888 52.0602 160.574 52.1594C160.259 52.2587 159.977 52.2733 159.784 52.2391C159.711 52.226 159.665 52.2097 159.638 52.1966C159.653 52.1702 159.681 52.1307 159.733 52.0777C159.871 51.9393 160.111 51.7892 160.425 51.69C160.74 51.5907 161.022 51.5761 161.214 51.6103ZM159.602 52.1728C159.602 52.1727 159.602 52.1733 159.603 52.1744C159.602 52.1734 159.601 52.1728 159.602 52.1728ZM159.622 52.237C159.622 52.237 159.622 52.2363 159.622 52.2349C159.622 52.2363 159.622 52.237 159.622 52.237ZM161.396 51.675C161.397 51.676 161.397 51.6766 161.397 51.6766C161.397 51.6767 161.397 51.6762 161.396 51.675Z" fill="white" stroke="#E6E7E8"/>
<path d="M160.096 48.5747C160.154 48.6528 160.2 48.7293 160.236 48.8009C160.179 48.7451 160.119 48.6782 160.062 48.6C160.004 48.5219 159.957 48.4454 159.921 48.3739C159.979 48.4296 160.038 48.4965 160.096 48.5747Z" fill="white" stroke="#E6E7E8"/>
<path d="M171.247 73.4304L171.247 73.4304L171.245 73.4275C171.021 73.053 170.865 72.5122 170.827 71.981C170.789 71.4311 170.885 71.0124 171.037 70.8087C171.169 70.632 171.334 70.6012 171.478 70.6531C171.632 70.7087 171.863 70.9034 171.957 71.3821C172.051 71.8647 172.021 72.1725 171.988 72.5095C171.974 72.6502 171.96 72.796 171.954 72.9618C171.945 73.2368 171.967 73.5308 172.089 73.8632C172.139 73.9996 172.204 74.1377 172.286 74.2797C172.223 74.2652 172.157 74.2429 172.087 74.2122C171.775 74.0748 171.457 73.7887 171.247 73.4304Z" fill="white" stroke="#E6E7E8"/>
<path d="M170.215 69.1454L170.212 69.1523L170.209 69.1593C170.176 69.2443 170.117 69.3396 170.023 69.4661C169.996 69.5012 169.962 69.5457 169.924 69.5947C169.909 69.6145 169.893 69.6351 169.876 69.6561C169.873 69.6358 169.87 69.6152 169.867 69.5945L169.867 69.5945C169.831 69.3744 169.882 69.2532 169.928 69.1883C169.979 69.1175 170.058 69.069 170.143 69.0495C170.154 69.0481 170.165 69.0494 170.175 69.0533C170.187 69.0577 170.198 69.0652 170.205 69.075C170.213 69.0847 170.218 69.0965 170.22 69.1089C170.222 69.1213 170.22 69.1339 170.215 69.1454Z" fill="white" stroke="#E6E7E8"/>
<mask id="path-35-inside-8" fill="white">
<path d="M167.492 68.977C167.422 68.9334 167.364 68.8715 167.326 68.7978C167.288 68.7241 167.27 68.6415 167.275 68.5586C167.281 68.4758 167.308 68.3959 167.355 68.3275C167.402 68.2591 167.466 68.2046 167.542 68.17C167.84 68.0421 168.267 68.1038 168.504 68.5951C168.66 68.9153 168.965 69.412 168.876 69.8083C168.627 69.1917 167.918 69.2634 167.492 68.977Z"/>
</mask>
<path d="M167.492 68.977C167.422 68.9334 167.364 68.8715 167.326 68.7978C167.288 68.7241 167.27 68.6415 167.275 68.5586C167.281 68.4758 167.308 68.3959 167.355 68.3275C167.402 68.2591 167.466 68.2046 167.542 68.17C167.84 68.0421 168.267 68.1038 168.504 68.5951C168.66 68.9153 168.965 69.412 168.876 69.8083C168.627 69.1917 167.918 69.2634 167.492 68.977Z" fill="white"/>
<path d="M167.492 68.977L168.05 68.147L168.034 68.1364L168.018 68.1264L167.492 68.977ZM167.542 68.17L167.148 67.2509L167.136 67.2559L167.124 67.2613L167.542 68.17ZM168.504 68.5951L167.604 69.0295L167.605 69.032L168.504 68.5951ZM168.876 69.8083L167.948 70.1819L169.146 73.1564L169.851 70.0282L168.876 69.8083ZM168.018 68.1264C168.101 68.1779 168.169 68.251 168.214 68.3379L166.438 69.2576C166.559 69.4919 166.742 69.6889 166.966 69.8277L168.018 68.1264ZM168.214 68.3379C168.259 68.4248 168.28 68.5224 168.274 68.6201L166.277 68.4972C166.261 68.7606 166.317 69.0234 166.438 69.2576L168.214 68.3379ZM168.274 68.6201C168.268 68.7178 168.235 68.812 168.18 68.8928L166.53 67.7622C166.381 67.9798 166.294 68.2339 166.277 68.4972L168.274 68.6201ZM168.18 68.8928C168.124 68.9735 168.048 69.0378 167.959 69.0787L167.124 67.2613C166.885 67.3715 166.679 67.5446 166.53 67.7622L168.18 68.8928ZM167.936 69.0891C167.88 69.113 167.802 69.1246 167.716 69.0942C167.671 69.0785 167.636 69.0555 167.614 69.0344C167.592 69.0141 167.592 69.0061 167.604 69.0295L169.405 68.1607C169.186 67.7056 168.829 67.3651 168.377 67.2065C167.942 67.0545 167.502 67.0991 167.148 67.2509L167.936 69.0891ZM167.605 69.032C167.645 69.1136 167.715 69.2484 167.747 69.3126C167.791 69.4004 167.826 69.4746 167.852 69.5411C167.879 69.6088 167.889 69.6488 167.892 69.6663C167.895 69.6837 167.886 69.6512 167.9 69.5884L169.851 70.0282C169.964 69.5266 169.815 69.0672 169.712 68.8053C169.61 68.5476 169.443 68.239 169.404 68.1582L167.605 69.032ZM169.803 69.4347C169.523 68.738 168.96 68.4626 168.592 68.3288C168.462 68.2816 168.21 68.2059 168.168 68.1918C168.062 68.1567 168.041 68.1414 168.05 68.147L166.934 69.8071C167.156 69.9558 167.384 70.039 167.539 70.0903C167.616 70.1161 167.699 70.141 167.757 70.1587C167.821 70.1786 167.868 70.1938 167.91 70.2088C167.995 70.2397 168.009 70.2543 167.999 70.2465C167.976 70.2287 167.955 70.1997 167.948 70.1819L169.803 69.4347Z" fill="#E6E7E8" mask="url(#path-35-inside-8)"/>
<path d="M186.43 84.3891L184.392 95.0536L181.603 90.331L186.43 84.3891Z" fill="#E6E7E8" stroke="#E6E7E8" stroke-linecap="square" stroke-linejoin="bevel"/>
<path d="M178.206 87.3582L180.856 91.4768L179.302 97.4294L176.199 93.1423L178.206 87.3582Z" fill="url(#paint6_linear)" stroke="#E6E7E8" stroke-linecap="square" stroke-linejoin="bevel"/>
<path d="M180.525 90.8439L178.76 95.6989L179.302 97.4294L184.392 95.0536L182.885 90.3666L180.525 90.8439Z" fill="url(#paint7_linear)" stroke="#E6E7E8" stroke-linecap="square" stroke-linejoin="bevel"/>
<path d="M178.206 87.3582L186.431 84.3892L183.158 91.0348L180.391 91.3564L178.206 87.3582Z" fill="url(#paint8_linear)" stroke="#E6E7E8" stroke-linecap="square" stroke-linejoin="bevel"/>
<rect x="30.7414" y="29.5508" width="25.2865" height="26.2601" rx="12.6433" transform="rotate(-0.135973 30.7414 29.5508)" fill="#C8C8C8" stroke="#E6E7E8"/>
<rect x="108.265" y="107.008" width="119.31" height="7.3937" rx="3.69685" transform="rotate(-0.135973 108.265 107.008)" fill="#C8C8C8" stroke="#E6E7E8"/>
<rect x="140.53" y="124.372" width="54.0254" height="6.46107" rx="3.23053" transform="rotate(-0.135973 140.53 124.372)" fill="#C8C8C8" stroke="#E6E7E8"/>
<rect x="249.736" y="169.418" width="63.3517" height="4.5958" rx="2.2979" transform="rotate(-0.135973 249.736 169.418)" fill="#C8C8C8" stroke="#E6E7E8"/>
<rect x="250.148" y="158.577" width="63.3517" height="5.52843" rx="2.76422" transform="rotate(-0.135973 250.148 158.577)" fill="#C8C8C8" stroke="#E6E7E8"/>
<rect x="249.736" y="178.998" width="63.3517" height="4.5958" rx="2.2979" transform="rotate(-0.135973 249.736 178.998)" fill="#C8C8C8" stroke="#E6E7E8"/>
<defs>
<linearGradient id="paint0_linear" x1="153.233" y1="55.783" x2="153.278" y2="74.7238" gradientUnits="userSpaceOnUse">
<stop stop-color="#FB541C"/>
<stop offset="0.921875" stop-color="#F21E5F"/>
</linearGradient>
<linearGradient id="paint1_linear" x1="167.401" y1="50.0529" x2="167.428" y2="61.8105" gradientUnits="userSpaceOnUse">
<stop stop-color="#FB541C"/>
<stop offset="0.921875" stop-color="#F21E5F"/>
</linearGradient>
<linearGradient id="paint2_linear" x1="156.569" y1="41.932" x2="156.621" y2="63.518" gradientUnits="userSpaceOnUse">
<stop stop-color="#FB541C"/>
<stop offset="0.921875" stop-color="#F21E5F"/>
</linearGradient>
<linearGradient id="paint3_linear" x1="161.368" y1="61.3349" x2="161.395" y2="72.4993" gradientUnits="userSpaceOnUse">
<stop stop-color="#FB541C"/>
<stop offset="0.921875" stop-color="#F21E5F"/>
</linearGradient>
<linearGradient id="paint4_linear" x1="168.983" y1="61.8342" x2="169.043" y2="87.0908" gradientUnits="userSpaceOnUse">
<stop stop-color="#FB541C"/>
<stop offset="0.921875" stop-color="#F21E5F"/>
</linearGradient>
<linearGradient id="paint5_linear" x1="164.887" y1="68.4959" x2="164.95" y2="94.9358" gradientUnits="userSpaceOnUse">
<stop stop-color="#FB541C"/>
<stop offset="0.921875" stop-color="#F21E5F"/>
</linearGradient>
<linearGradient id="paint6_linear" x1="178.516" y1="87.3574" x2="178.539" y2="97.4312" gradientUnits="userSpaceOnUse">
<stop stop-color="#FB541C"/>
<stop offset="0.921875" stop-color="#F21E5F"/>
</linearGradient>
<linearGradient id="paint7_linear" x1="181.564" y1="90.3698" x2="181.581" y2="97.424" gradientUnits="userSpaceOnUse">
<stop stop-color="#FB541C"/>
<stop offset="0.921875" stop-color="#F21E5F"/>
</linearGradient>
<linearGradient id="paint8_linear" x1="182.315" y1="84.3989" x2="182.331" y2="91.3518" gradientUnits="userSpaceOnUse">
<stop stop-color="#FB541C"/>
<stop offset="0.921875" stop-color="#F21E5F"/>
</linearGradient>
</defs>
</svg>
