<svg width="370" height="369" viewBox="0 0 370 369" fill="none" xmlns="http://www.w3.org/2000/svg">
<path fill-rule="evenodd" clip-rule="evenodd" d="M317.239 67.6649C315.476 73.7865 312.427 79.8594 307.895 85.6563C292.339 105.554 304.217 121.996 317.617 138.808H263.814C261.404 138.808 259.451 140.762 259.451 143.171C259.451 145.58 261.404 147.533 263.814 147.533H324.532C325.648 148.979 326.743 150.433 327.8 151.896H235.655C233.246 151.896 231.292 153.849 231.292 156.259C231.292 158.668 233.246 160.621 235.655 160.621H333.471C334.284 162.062 335.036 163.515 335.712 164.984H276.306C274.006 164.984 272.141 166.848 272.141 169.148C272.141 171.448 274.006 173.312 276.306 173.312H338.605C339.08 175.391 339.368 177.504 339.437 179.658H263.814C261.404 179.658 259.451 181.611 259.451 184.02C259.451 186.43 261.404 188.383 263.814 188.383H340.067C343.485 208.922 360.325 216.14 369.017 218.524H49.0288C37.9831 218.524 29.0288 209.57 29.0288 198.524V20C29.0288 8.95432 37.9831 0 49.0288 0H267.679C268.334 0.123528 269.072 0.231125 269.897 0.322021C298.483 3.47131 321.237 30.1305 318.964 58.2257L314.288 42.2232C314.335 42.0505 314.36 41.8698 314.36 41.6837C314.36 41.0855 314.101 40.5428 313.681 40.1448L312.712 36.8283L309.709 40.619L277.464 81.3228L250.438 62.0798L248.539 60.7274L247.587 61.8837C247.04 62.1781 246.63 62.6651 246.469 63.2434L214.271 102.384C213.328 102.684 212.652 103.506 212.652 104.473C212.652 105.694 213.731 106.684 215.062 106.684C215.513 106.684 215.935 106.57 216.296 106.373L216.993 106.946L249.437 67.5052L276.499 86.7735L278.434 88.1511L279.909 86.2893L310.625 47.5144L315.682 64.8175L316.631 68.0655L317.239 67.6649ZM50.0486 29.7447C45.887 29.7447 42.5133 33.1183 42.5133 37.28C42.5133 41.4416 45.887 44.8153 50.0486 44.8153H151.974C156.135 44.8153 159.509 41.4416 159.509 37.28C159.509 33.1183 156.135 29.7447 151.974 29.7447H50.0486ZM42.5133 57.9029C42.5133 53.7412 45.887 50.3676 50.0486 50.3676H135.713C139.875 50.3676 143.249 53.7412 143.249 57.9029C143.249 62.0645 139.875 65.4382 135.713 65.4382H50.0486C45.887 65.4382 42.5133 62.0645 42.5133 57.9029ZM50.0486 70.9905C45.887 70.9905 42.5133 74.3642 42.5133 78.5258C42.5133 82.6874 45.887 86.0611 50.0486 86.0611H181.322C185.483 86.0611 188.857 82.6874 188.857 78.5258C188.857 74.3642 185.483 70.9905 181.322 70.9905H50.0486ZM178.857 181.442C178.857 159.192 160.942 141.125 138.75 140.879C138.597 140.877 138.444 140.876 138.291 140.876C130.963 140.876 124.089 142.819 118.156 146.218C105.949 153.211 97.7251 166.366 97.7251 181.442C97.7251 182.133 97.655 182.807 97.5217 183.458C97.0776 185.628 95.9302 187.543 94.328 188.952C96.2397 189.496 97.6398 191.254 97.6398 193.34C97.6398 195.859 95.5979 197.901 93.079 197.901H77.2152C74.6963 197.901 72.6543 195.859 72.6543 193.34C72.6543 190.821 74.6963 188.779 77.2152 188.779H80.93C79.6853 187.626 78.7346 186.16 78.2029 184.506C77.8925 183.54 77.7249 182.511 77.7249 181.442C77.7249 156.355 92.9778 134.83 114.716 125.636C121.962 122.571 129.928 120.876 138.291 120.876H138.291C155.411 120.876 170.886 127.993 181.889 139.402L181.93 139.444C192.412 150.333 198.857 165.135 198.857 181.442C198.857 184.342 197.623 186.953 195.652 188.779H198.97C201.489 188.779 203.531 190.821 203.531 193.34C203.531 195.859 201.489 197.901 198.97 197.901H181.123C178.604 197.901 176.562 195.859 176.562 193.34C176.562 190.821 178.604 188.779 181.123 188.779H182.062C180.091 186.953 178.857 184.342 178.857 181.442ZM113.9 179.459C113.9 172.998 119.138 167.76 125.6 167.76H150.982C157.443 167.76 162.682 172.998 162.682 179.459C162.682 185.921 157.443 191.159 150.982 191.159H125.6C119.138 191.159 113.9 185.921 113.9 179.459Z" fill="#E8E8E8"/>
<path fill-rule="evenodd" clip-rule="evenodd" d="M82.4629 339.68C82.4629 354.2 89.3744 358.353 95.9253 358.786C101.784 359.172 94.4661 344.735 88.1551 338.983L82.4629 339.68Z" fill="#363636"/>
<path fill-rule="evenodd" clip-rule="evenodd" d="M48.7845 346.936C52.492 359.983 40.5217 370.95 35.5379 368.597C30.2296 366.09 34.356 359.83 43.0922 346.239L48.7845 346.936Z" fill="#363636"/>
<path fill-rule="evenodd" clip-rule="evenodd" d="M44.6802 137.342C53.4768 133.582 58.312 128.912 55.9637 122.59C53.8617 118.299 53.1842 112.848 54.5846 109.718C57.7988 102.534 67.0185 101.882 70.8411 108.381C72.8206 111.746 72.3847 118.032 71.8858 120.542C71.452 122.725 69.5149 124.707 71.9412 127.788C74.2505 130.72 82.0156 131.044 89.1634 133.971C89.1634 133.971 61.1076 156.731 44.6802 137.342Z" fill="#FFCCAF"/>
<path fill-rule="evenodd" clip-rule="evenodd" d="M56.6938 225.893L98.4159 218.11C98.4159 217.002 105.274 252.173 102.464 271.041C97.7886 302.444 88.6096 316.511 90.3211 341.098L81.9144 340.788C72.6734 314.421 69.0485 293.671 72.2621 279.76C65.8215 267.213 61.9004 255.813 59.5344 245.118L56.6938 225.893Z" fill="#CDCDCD"/>
<path fill-rule="evenodd" clip-rule="evenodd" d="M23.1732 230.845L78.3573 231.325C78.3573 230.219 65.8494 259.483 63.039 278.353C58.3621 309.756 48.0037 323.351 49.7152 347.938L41.3085 347.627C32.0675 321.26 28.4426 300.51 31.6562 286.599C25.2156 274.053 24.8371 258.401 22.4712 247.707L23.1732 230.845Z" fill="#EFEFEF"/>
<path fill-rule="evenodd" clip-rule="evenodd" d="M46.4283 136.585C46.4283 136.585 63.6156 148.542 85.0375 132.35C85.0375 132.35 110.694 140.57 117.17 151.779C123.647 162.988 96.9939 184.658 96.9939 184.658C96.9939 184.658 101.904 198.409 102.972 205.584C104.135 213.388 107.174 222.46 103.969 231.49C103.969 231.49 107.27 238.828 68.8466 237.717C45.5072 237.041 15.619 267.06 11.3563 260.034C4.78212 249.199 16.0948 231.326 20.9045 223.738C26.1995 215.386 35.7318 208.983 38.2084 199.604C40.7409 190.015 41.9705 176.669 36.4647 165.729L15.0428 155.267C21.7201 148.494 32.6704 142.699 46.4283 136.585Z" fill="url(#paint0_linear)"/>
<path fill-rule="evenodd" clip-rule="evenodd" d="M20.8798 150.306C20.8798 150.306 9.09785 157.999 4.04413 169.008C-4.23075 187.032 4.74693 199.918 20.9398 201.493C33.3832 202.704 62.7368 192.203 70.2397 187.21L70.403 173.986C56.7144 178.361 38.3674 186.8 34.3259 181.984C31.5377 178.663 49.5014 163.811 48.3651 163.294" fill="url(#paint1_linear)"/>
<path fill-rule="evenodd" clip-rule="evenodd" d="M134.077 153.703C134.077 150.886 131.79 148.601 128.974 148.601L62.7084 163.296C59.8921 163.296 57.6058 165.583 57.6058 168.399L53.1221 206.766C53.1221 209.583 55.4084 211.87 58.2248 211.87L124.49 197.173C127.307 197.173 129.593 194.886 129.593 192.07L134.077 153.703Z" fill="black"/>
<path fill-rule="evenodd" clip-rule="evenodd" d="M56.2942 122.512C56.2751 122.477 50.0837 113.943 52.0954 109.465C54.2323 104.708 64.936 100.057 70.991 105.393C73.8419 107.905 72.2028 113.68 72.2028 113.68C70.8661 113.029 69.9463 112.14 69.5184 110.969C69.5184 110.969 67.1174 113.215 65.8404 113.201C64.6058 113.187 62.0278 111.567 62.0278 111.567C62.0278 111.567 59.9275 114.17 59.1475 114.515C58.3789 114.855 56.7314 113.797 56.7314 113.797C56.1195 112.92 55.2223 114.265 55.2223 114.265C55.2223 114.265 53.794 116.786 56.8669 120.732C57.7797 121.222 60.5666 123.909 65.6425 121.918C69.0619 120.577 71.0871 122.158 72.2362 117.666C72.2422 117.646 72.2508 117.635 72.2622 117.632L72.2362 117.666C72.035 118.315 72.7062 123.038 71.6631 124.733C70.6202 126.428 68.1275 127.632 65.9782 127.838C60.2969 128.382 56.766 125.012 56.2942 122.512Z" fill="black"/>
<path fill-rule="evenodd" clip-rule="evenodd" d="M124.425 168.621C132.411 167.641 137.183 175.452 133.866 179.029C128.918 184.366 117.246 169.503 124.425 168.621Z" fill="#FFCCAF"/>
<defs>
<linearGradient id="paint0_linear" x1="63.7694" y1="132.35" x2="63.7694" y2="261.1" gradientUnits="userSpaceOnUse">
<stop stop-color="#FB541C"/>
<stop offset="0.921875" stop-color="#F21E5F"/>
</linearGradient>
<linearGradient id="paint1_linear" x1="35.6576" y1="150.306" x2="35.6576" y2="201.59" gradientUnits="userSpaceOnUse">
<stop stop-color="#FB541C"/>
<stop offset="0.921875" stop-color="#F21E5F"/>
</linearGradient>
</defs>
</svg>
